<svg xmlns="http://www.w3.org/2000/svg" viewBox="0 0 400 400"><defs><style>.cls-1{fill:none;}.cls-2{fill:#ff3b3b;}</style></defs><g id="Layer_2" data-name="Layer 2"><g id="Layer_1-2" data-name="Layer 1"><rect class="cls-1" width="400" height="400"/><path class="cls-2" d="M154.85,154.29c-12.63,0-26.64.61-27.81,17.93-1.15,16.94,11.17,19.41,24.62,21.44,49,7.44,76.37,37.08,83.35,85.52,2.05,14.25,6.07,24.84,22.48,23.29,15.17-1.44,15.36-14.32,17.16-24.32h0C276.38,217.71,214.82,154.44,154.85,154.29Zm100.9,132.53h0c-13.25-63.78-48.24-103-121.11-108.1h0c28.73-15.5,56.13-9.23,84.46,14.42C248.29,217.5,260.31,248.89,255.75,286.82Z"/><path class="cls-2" d="M154.22,209.05c-12.82-1.19-23.3,1.84-26.53,14.88S131,245.7,144.7,248c22,3.71,33.21,17.3,36.46,38.84,1.86,12.37,10.58,17.37,22,15.84,14.63-2,16-13.67,16.3-22.55C218.06,244.2,187,212.11,154.22,209.05Zm46.28,79.52h0c-10.38-29.42-26.81-51.44-65.45-56.22h0C177.83,217.48,206.69,244.74,200.5,288.57Z"/><path class="cls-2" d="M145.63,266c-12.2-.13-19.17,6.4-18.93,18.38.23,11.83,7.51,18.37,19.41,18.41,12.14,0,17.72-7.63,19.85-18.65h0C163.93,272.71,157.49,266.13,145.63,266Z"/><path class="cls-2" d="M342.23,200.71q0-14-.06-28.08.13-64,.27-128.11c0-1.26-.06-2.46-.1-3.67,0-.21,0-.43,0-.64C341.11,13.94,328.14-.22,299,0c-7.08.06-14.15.07-21.23.11Q238.88.2,200,.27T122.26.11C115.18.07,108.11.06,101,0,71.86-.22,58.89,13.94,57.68,40.21c0,.21,0,.43,0,.64,0,1.21-.1,2.41-.1,3.67q.12,64.07.27,128.11,0,14-.06,28.08c0,52.67.27,105.35-.12,158C57.45,385.17,68.58,400,96.05,400h1c.37,0,.72,0,1.09,0q50.91-.21,101.83-.12t101.83.12c.37,0,.72,0,1.09,0h1c27.47,0,38.6-14.8,38.4-41.23C342,306.06,342.24,253.38,342.23,200.71Zm-50.83,184c-36.09-.77-72.2-.68-108.31-.4-24.86-.07-49.73.05-74.58.58-17.37.36-27.43-4-32.86-12.84-3.26-5.59-4.74-13.26-4.36-23.53,1.84-50,.52-100.08.52-150.14h-.14c0-48.91.92-97.85-.36-146.73,0-36,2.93-37.09,57.64-37.09,50.74,0,128.06-.18,140.36-.18,16.28,0,28.16.1,36.85,1,21.14,2.37,22.65,10.21,22.65,36.12-1.28,48.93-.36,97.91-.36,146.87h-.14c0,50.1-1.32,100.25.53,150.28a60.35,60.35,0,0,1-1,14.23C324.06,377.71,313.87,385.2,291.4,384.73Z"/><path class="cls-2" d="M316,309.51c-.3-7.63-.53-15.26-.75-22.88.06-68.2-.4-136.4.34-204.59q.14-8.08.28-16.18a62.34,62.34,0,0,0-.36-6.58c-2.37-31.94-23.92-29-50.34-28.89-1.12,0-2.17-.06-3.33-.06l-61.83,0-61.83,0c-1.16,0-2.21.05-3.33.06-26.42-.14-48-3.05-50.34,28.89a62.34,62.34,0,0,0-.36,6.58q.14,8.07.28,16.16c.74,68.19.28,136.4.34,204.6-.22,7.63-.45,15.26-.75,22.89-.49,12.16,1.26,21.07,5.61,27.18a15.67,15.67,0,0,0,8.23,6.93c5.27,2.63,12.11,3.81,20.77,3.64,11-.21,21.91-.3,32.87-.35V333.5c-5.63.17-11.25.41-16.87.75-12,.73-20.67-.46-26.79-4.08-12.27-9.54-9.67-27.46-9.53-44.51.61-69.85,1.12-139.73-.31-209.57-.5-24.19,3.32-33.59,30.61-33.94h.63c21.52.78,46.85.83,70.77.66,23.92.17,49.25.12,70.77-.66h.63c27.29.35,31.11,9.75,30.61,33.94-1.43,69.84-.92,139.72-.31,209.57.14,17,2.74,35-9.53,44.51-6.12,3.62-14.82,4.81-26.79,4.08-21.74-1.31-43.55-1.21-65.38-.93q-14.26-.18-28.51-.14V347q14.25,0,28.51-.09,20.67.09,41.34.12h0v-.17c13.34,0,26.69.13,40,.39,8.66.17,15.5-1,20.77-3.64a15.64,15.64,0,0,0,8.23-6.93C314.73,330.58,316.48,321.67,316,309.51Z"/><path class="cls-2" d="M174,358.4a6,6,0,0,0,0,12h34v-12Z"/><path class="cls-2" d="M226,370.4a6,6,0,0,0,0-12H192v12Z"/></g></g></svg>