<svg xmlns="http://www.w3.org/2000/svg" viewBox="0 0 1416.46 524.07"><defs><style>.cls-1{fill:#fff;}</style></defs><g id="Layer_2" data-name="Layer 2"><g id="Layer_1-2" data-name="Layer 1"><path class="cls-1" d="M1416.46,459.25c-1.76.06-3.52.13-5.29.18a2.13,2.13,0,0,1-2.44-2.36q0-15.74,0-31.45c0-1.61,1-2.27,2.52-2.37a11,11,0,0,1,5.21.58Z"/><path class="cls-1" d="M1416.46,416.75a5.34,5.34,0,0,1-5.58,1.12,3.73,3.73,0,0,1-2.84-3.95,3.78,3.78,0,0,1,3.39-3.87,6.42,6.42,0,0,1,5,1Z"/><path class="cls-1" d="M261.86,523.92c-4.48,0-9-.23-13.45.05-6.86.43-13.66-.54-20.41-1.22A83.09,83.09,0,0,1,212.83,520c-4-1.18-8.26-1.56-12.33-2.57-3.63-.89-7.24-1.86-10.84-2.88-4.18-1.18-8.24-2.69-12.37-3.94a122.07,122.07,0,0,1-12.82-4.87c-8.29-3.59-16.77-6.78-24.59-11.35-6.47-3.79-13-7.47-19.41-11.4-5.7-3.51-10.8-7.83-16.49-11.32a33.91,33.91,0,0,1-4.34-3.55c-3.25-2.88-6.8-5.37-10-8.3-5.22-4.74-10.83-9.15-15.3-14.57-4.11-5-9-9.28-12.83-14.49-2.08-2.78-4.34-5.53-6.61-8.22-3.22-3.84-5.92-8.14-8.78-12.28q-2.81-4-5.44-8.18a301,301,0,0,1-15.88-28.6c-3.69-7.5-6.43-15.36-9.43-23.14-2.17-5.6-3.69-11.33-5.31-17.09-1.33-4.71-2.47-9.51-4-14.17-.53-1.58-.43-3.25-.76-4.87-1.2-5.84-2.43-11.69-2.65-17.68a3.35,3.35,0,0,0-.05-1.06c-1.82-4.29-.5-8.93-1.37-13.22C-1,271.35.66,260.4.09,249.49A9.46,9.46,0,0,1,.82,245c1-2.11.41-4.42.49-6.65.09-2.57-.29-5.19,1.1-7.59a2.31,2.31,0,0,0,.16-1.39c-.44-3.69.33-7.36,1.13-10.83,1-4.56,1.46-9.23,2.79-13.75,1-3.46,1.6-7.08,2.61-10.57,2.51-8.65,4.6-17.43,8.49-25.63,1.25-2.63,1.56-5.61,2.87-8.29,3.21-6.54,5.83-13.37,9.46-19.7,4.44-7.73,8.29-15.82,13.6-23,3.69-5,7.2-10.11,11-15,4.94-6.29,10.63-11.92,15.66-18.07C75.11,78.57,80.69,73.4,86.1,68a125.08,125.08,0,0,1,10.49-8.76c3.67-2.93,7.35-5.83,11.17-8.56,5.73-4.1,11.45-8.17,17.57-11.7,3.63-2.09,7.11-4.49,10.81-6.48,5.39-2.89,10.74-5.94,16.41-8.15s10.79-5.06,16.53-7c5.52-1.82,11-3.87,16.56-5.73,4.64-1.56,9.47-2.66,14.23-3.92s9.63-1.68,14.38-2.95c3-.8,6.22-1.19,9.29-1.78,4.73-.91,9.68.12,14.25-1.82a2.58,2.58,0,0,1,1-.15c11.31.11,22.55-1.56,33.89-.93,4.56.26,9.18.53,13.65,1.14,4.14.56,8.38.65,12.5,1.61,2.83.66,5.79.55,8.66,1.42,5.24,1.59,10.73,2.07,16.08,3.33q8.4,2,16.62,4.51c8.63,2.63,17,6,25.34,9.39a232.32,232.32,0,0,1,22.19,10.71,190,190,0,0,1,24,14.77c5.63,4.19,11.38,8.23,16.75,12.83,7,6,14.27,11.57,20.23,18.51C453.52,84,459,89,463.48,94.9c4,5.22,8.27,10.19,12.09,15.54,4.36,6.12,8.4,12.43,12.32,18.84A280.51,280.51,0,0,1,502,156.49a159,159,0,0,1,8.74,23c1.71,5.84,4,11.54,5.13,17.52.87,4.48,2.26,8.82,3,13.36.71,4.37,1.13,8.84,2.18,13.1.88,3.52.34,7.1,1.2,10.42,1.5,5.85.42,11.76,1.25,17.53a92,92,0,0,1,.69,16.56c-.24,6.46-1.16,12.89-.9,19.37-2.11,4.49-.36,9.57-2.26,14.17-.76,1.86-.56,4.14-.92,6.23-.79,4.61-1.9,9.15-2.61,13.78a39.74,39.74,0,0,1-1.74,6.78c-1.68,4.88-3.35,9.81-4.58,14.76a137.24,137.24,0,0,1-8.46,23.05c-2.3,5.13-4.13,10.48-7.09,15.34-5.12,8.42-9.46,17.36-15,25.45-4.37,6.32-8.93,12.58-13.64,18.72-9.87,12.86-21.82,23.69-33.22,35-4.36,4.33-9.45,8-14.44,11.72-6.32,4.69-12.94,8.91-19.47,13.27a64.82,64.82,0,0,1-10.06,5.82c-4.54,2-8.39,5.18-13,7-8.28,3.27-16.34,7.07-24.68,10.22a232,232,0,0,1-24.8,7.64c-3.71.94-7.51,1.68-11.21,2.8a62.52,62.52,0,0,1-8.23,1.73c-3.57.57-7.26.48-10.72,1.77A9,9,0,0,1,295,523c-10.55,1.21-21.16.9-31.75.93Zm175.38-278.8H493.9c.94,0,1.89,0,2.83,0,1.64,0,2.42-.77,2.33-2.38-.2-3.48.74-7.07-1-10.43a5,5,0,0,1-.23-2.09,65.86,65.86,0,0,0-2.58-15.9c-1.37-5.09-2-10.34-3.75-15.35-1.73-4.82-2.61-9.92-4.4-14.75-2.74-7.4-5.73-14.68-8.9-21.89-1.85-4.19-3.59-8.52-6.1-12.31-2.28-3.44-3.93-7.19-6.14-10.65-3.35-5.22-6.69-10.43-10.33-15.46-1.38-1.91-3-3.57-4.34-5.52a100.58,100.58,0,0,0-11.6-14.56c-5.34-5.49-11-10.67-16.2-16.31a101.32,101.32,0,0,0-11.63-10.25c-6.39-5.1-13-10-19.86-14.48-7.85-5.17-16.36-9.2-24.36-14.1-2.84-1.74-6.13-2.34-9.06-3.85-6.49-3.34-13.45-5.5-20.29-8-5-1.8-10.08-3.13-15.11-4.68a69.49,69.49,0,0,0-11.59-2.67,54,54,0,0,1-7.66-1.11,65.11,65.11,0,0,0-12.46-1.86c-1.87-.15-3.73-.05-5.54-.87-1.52-.7-3.25-.4-4.9-.31a1.72,1.72,0,0,0-1.72,1.86c0,.82,0,1.65-.05,2.48q0,16.81,0,33.64a20.4,20.4,0,0,0,.1,2.82,2.56,2.56,0,0,0,2.52,2.52c2.76-.06,5.34.94,8,1,4,.12,7.84,1.27,11.75,1.89,3.68.58,7.2,2,10.85,2.82,4.37.94,8.55,2.49,12.84,3.67,4,1.11,7.74,3.32,11.74,4.71a48.28,48.28,0,0,1,6.5,2.63c6.27,3.22,12.66,6.28,18.64,10a137.8,137.8,0,0,1,12,7.84c3,2.36,6.26,4.49,9.26,7,3.6,3,7.42,5.71,10.82,8.93,4,3.81,7.89,7.78,11.82,11.7a48.8,48.8,0,0,1,4.4,4.59c4.49,5.86,9.45,11.36,13.22,17.75,2.92,4.94,6.93,9.21,9.16,14.57,1.19,2.85,3.45,5.1,4.52,8,2.36,6.36,5.41,12.43,7.72,18.82A199.34,199.34,0,0,1,452,218.9c.84,3.74-.12,4.66-3.92,4.7-2.59,0-5.19,0-7.79,0a9,9,0,0,0-2.8.24c-5.65,2-11.45.68-17.18.9a3.13,3.13,0,0,1-3.16-2.39c-1.22-3.66-2.49-7.32-3.61-11-1.91-6.32-4.87-12.2-7.35-18.28-1.44-3.52-3.92-6.46-5.41-9.87-3-6.88-7.83-12.54-12.25-18.41a95.94,95.94,0,0,0-10.68-12.18c-5.81-5.47-11.12-11.51-17.61-16.23-2.09-1.52-4-3.35-6.16-4.68-5-3.05-9.78-6.41-14.93-9.27a167.05,167.05,0,0,0-20.85-9.39,133.36,133.36,0,0,0-13.69-4.46c-2.82-.76-5.63-1.76-8.45-2.27-4.6-.82-9.25-1.67-13.85-2.13-4.88-.48-9.78-1.39-14.74-1.23-4.6.15-9.21,0-13.81,0a12.84,12.84,0,0,0-3.52.24c-4.42,1.31-9,.79-13.56,1.74-6.74,1.41-13.57,2.36-20.12,4.58-8.77,3-17.73,5.42-25.93,9.92-3.9,2.15-8.21,3.56-11.8,6.3-3,2.28-6.43,3.79-9.36,6.18a57,57,0,0,1-5,3.86,77.67,77.67,0,0,0-9.8,8,166.58,166.58,0,0,0-22.39,25.32c-5.48,7.4-9.79,15.44-14.15,23.46-2.22,4.08-3.58,8.63-5.31,13A119.92,119.92,0,0,0,106.47,226c-1,4.8-2.26,9.58-2.29,14.55a7,7,0,0,1-.63,2c-.64,2-.34,2.41,1.87,2.57.58,0,1.18,0,1.77,0h37.18l2.12,0c1.24,0,1.81-.61,2.2-1.82,1.35-4.24,1.85-8.67,3.23-12.93a144.66,144.66,0,0,1,5.3-14.1c1.7-3.85,4.06-7.41,6-11.13a91.56,91.56,0,0,1,12-17.69c4.38-5.15,9-10.24,14.71-14.21a52.65,52.65,0,0,0,5.11-3.7c3.61-3.25,7.85-5.6,12.06-7.88a113.84,113.84,0,0,1,25.08-9.95c3.72-1,7.55-1.6,11.28-2.45,4.64-1,9.32-.94,13.95-1.66,6.9-1.07,13.83.73,20.76.91a2.05,2.05,0,0,1,.7.11c5.52,1.93,11.39,2.34,17,4.17,5.13,1.68,10,3.79,15.05,5.71,3.21,1.22,6,3.17,9,4.79a65.84,65.84,0,0,1,13.84,9.6c6.91,6.53,14.26,12.73,19.75,20.63,3.54,5.12,7.3,10.11,10,15.78,1.66,3.51,3.49,6.94,5,10.51,1.71,4,3.58,7.88,4.38,12.21.68,3.67,1.92,7.24,2.68,10.9.38,1.81,1.32,2.31,2.95,2.23.94,0,1.89,0,2.83,0ZM103.51,280.83a10.62,10.62,0,0,1,.71,5.75c-.25,2.24,1.07,4.09,1.23,6.18.32,4.13,1.62,8,2.71,12,1.66,6,3.28,12,6,17.57,1.23,2.55,1.83,5.32,3.19,7.82,2.71,5,5.27,10,8,14.92,3.89,7,8.95,13.17,13.68,19.55a69.8,69.8,0,0,0,8.57,8.89c6,5.61,11.59,11.61,18.5,16.27,4.94,3.34,9.81,6.82,14.82,10.06a78.12,78.12,0,0,0,14.94,7.85c6.55,2.45,13,5.31,19.69,7.36s13.35,3.5,20.08,4.87c3.72.75,7.61,1.58,11.54,1.17a5.67,5.67,0,0,1,2.76.45,10.39,10.39,0,0,0,4.49.74h15.94a7.48,7.48,0,0,0,3.49-.37,11.44,11.44,0,0,1,5.53-.85,51.13,51.13,0,0,0,11.52-1.33c3.84-.86,7.75-1.74,11.58-2.8a168.63,168.63,0,0,0,16.32-5.27,137.31,137.31,0,0,0,20.93-9.95c1.61-1,3.41-1.46,5-2.61,4-2.89,8.14-5.5,12.22-8.24a66,66,0,0,0,10.06-7.67c8.16-8.13,16.49-16,23.47-25.33A177.42,177.42,0,0,0,402.67,339a126.9,126.9,0,0,0,13.23-33.63c.55-2.3,1.73-3.95,4.36-4.47a36.7,36.7,0,0,1,4.53-.5c7.72-.52,15.53,1.15,23.18-1.12,1.8-.53,3.51.56,4.79,1.77,1.11,1.05-.13,2.16-.44,3.24a9.14,9.14,0,0,0-.21,1.39A162.35,162.35,0,0,1,447,326.11a118.64,118.64,0,0,1-6.11,15.34c-2.89,6.31-6,12.54-9.27,18.64a86,86,0,0,1-7.42,11.53c-2.58,3.33-4.56,7.06-7.41,10.21-2.35,2.59-4.12,5.73-6.53,8.25-5.46,5.71-11.15,11.19-16.76,16.75a18.17,18.17,0,0,1-2.88,2.61c-3.4,2.12-6,5.17-9.26,7.52-5,3.63-10,7.28-15.37,10.5-2.91,1.76-6,3.2-8.87,5-8.37,5.36-17.52,9.06-26.71,12.55C325.28,447,320,448.48,314.64,450c-5.76,1.61-11.61,2.72-17.39,4.19-4.85,1.23-10,1.22-14.89,2.34-2.47.56-3.06.87-3.07,3.43q-.06,18.58,0,37.18c0,2.68.33,2.64,3.18,3,5.14.64,10.06-.91,14.95-1.74,5.38-.91,10.83-1.66,16.18-3,4.75-1.17,9.6-2.16,14.25-3.56s9.06-3.24,13.66-4.59c8-2.35,15.34-6.36,23.09-9.34,5-1.91,9.18-5.21,13.91-7.54a39.43,39.43,0,0,0,4.4-2.23c6-4,12.23-7.77,18.07-12.11s11.77-8.25,16.92-13.1c6.43-6,13.34-11.63,19-18.55,3.71-4.51,7.6-8.89,11.21-13.5,1.31-1.66,2.34-3.5,3.73-5.11,4.45-5.17,7.8-11.15,11.85-16.62,2.73-3.69,4.56-7.93,7-11.8A148.06,148.06,0,0,0,482,354.25c2.49-6.18,5-12.39,6.84-18.81.75-2.59,1.88-5.09,2.39-7.72,1.08-5.53,2.78-10.9,3.88-16.41.66-3.3,1.85-6.47,1.92-9.95a47.79,47.79,0,0,1,1.18-9.76,27.93,27.93,0,0,0,.88-6.2c0-5.18,0-5.18-5.26-5.18h-113c-1.06,0-2.12,0-3.18,0a1.86,1.86,0,0,0-2,1.59,30.43,30.43,0,0,0-.84,3.42,46.44,46.44,0,0,1-2,8.51,110.81,110.81,0,0,1-7.64,19.64c-4.63,9.15-9.74,18-17.39,25a7.12,7.12,0,0,0-2,2.45,11.77,11.77,0,0,1-5,5.35,21.26,21.26,0,0,0-4.83,4.05,41.15,41.15,0,0,1-8.27,6.54c-3.72,2.45-7.69,4.5-11.46,6.85a70.46,70.46,0,0,1-15.34,6.94c-4.76,1.57-9.45,3.38-14.49,4.17-4,.63-8,1.68-12.15,1.76a7.41,7.41,0,0,0-2.46.12c-4.44,1.86-9.08.91-13.63,1.1a6.64,6.64,0,0,1-3.13-.35c-1.91-.95-3.88-.85-5.88-.87a27.59,27.59,0,0,1-3.53-.11,140.37,140.37,0,0,1-17.09-3.88,106.22,106.22,0,0,1-20.75-8.67c-3.42-1.81-7-3.44-10.09-5.75a156.59,156.59,0,0,1-19.83-17.39,88.34,88.34,0,0,1-9.64-11.62,157.76,157.76,0,0,1-11-20,113,113,0,0,1-7-19.53c-.53-2-.25-4.13-1.21-6.18-1.42-3-1.17-3.18-4.35-3.19q-18.94,0-37.89,0C105.76,280.23,104.66,280,103.51,280.83ZM245.06,47.18q0-8.31,0-16.64c0-5.36-.29-5.62-5.6-5.25a6,6,0,0,0-2.4.53,6.44,6.44,0,0,1-3.44.66c-3.91-.26-7.65,1.41-11.57,1a2.23,2.23,0,0,0-1,.22c-4,1.68-8.43,1.79-12.6,3-3.22.9-6.6,1.27-9.84,2.37-5,1.69-10.19,2.82-15.15,4.62a214.93,214.93,0,0,0-23.32,9.87c-2,1-4.39,1.09-6.1,2.64a18.61,18.61,0,0,1-4.81,2.91,130.56,130.56,0,0,0-14.3,8.29c-5.37,3.4-10.28,7.4-15.52,11a104.71,104.71,0,0,0-15.3,12.36c-8,8-16.43,15.46-23.58,24.31-4.57,5.66-9.25,11.27-13.35,17.23a179.79,179.79,0,0,0-13,21.31c-3.48,6.93-7.26,13.73-10.32,20.84A289,289,0,0,0,32.17,201.6c-.79,2.69-1.86,5.4-2.08,8.15-.41,5.06-2.17,9.83-2.59,14.9-.21,2.42,0,5-.88,7.3-1.21,3.25-.87,6.5-1,9.77-.05,1.41.21,3-.35,4.19a14.21,14.21,0,0,0-.92,6.22c0,3.54-.13,7.08,0,10.62.25,5.48-1,11.08,1.17,16.43a4.39,4.39,0,0,1,.07,1.41,68.46,68.46,0,0,0,1,11.89c1,4.88,1.44,9.93,2.31,14.9a183.4,183.4,0,0,0,5.25,22.54c2,6.49,4.28,12.91,6.67,19.29,2.52,6.71,5.68,13.11,8.51,19.66,1.84,4.27,4.42,8.26,6.72,12.35,5.21,9.29,11.42,18,17.67,26.58a126.32,126.32,0,0,0,14.4,16.82c9.14,8.79,17.48,18.43,27.94,25.8,4.68,3.29,9.1,7,13.8,10.23,4.22,2.93,8.44,6.05,13.08,8.15,6,2.71,11.31,6.61,17.51,9,5.67,2.17,11.16,4.87,16.77,7.26,6.49,2.76,13.3,4.55,19.92,6.92a90.57,90.57,0,0,0,18,4.36c5.45.75,10.69,2.9,16.31,2.46a3.24,3.24,0,0,1,1.71.35c3.13,1.68,6.48.69,9.73.86a1.83,1.83,0,0,0,2.06-1.93c.05-.82.07-1.65.07-2.48q0-17,0-34a26.79,26.79,0,0,0-.12-2.83c-.13-1.18-.82-2.17-2-2.1-2.78.15-5.26-1.22-7.93-1.4-5.52-.37-10.85-1.78-16.26-2.7-3-.52-5.81-2-8.72-2.67-4.92-1.15-9.65-2.69-14.43-4.31-6.57-2.24-12.84-5.14-19.22-7.77-6.85-2.83-13-7.07-19.39-10.78a126,126,0,0,1-11.55-8c-2.63-1.95-4.92-4.37-7.58-6.29-5-3.57-9.27-7.89-13.79-11.95-4.8-4.32-8.36-9.88-13.24-14.17a4,4,0,0,1-.46-.54c-3.61-5.05-7.44-9.95-10.76-15.21-3.88-6.15-7.91-12.17-11.21-18.67a196.16,196.16,0,0,1-12.48-30.58q-2.34-7.54-4.25-15.22c-.46-1.88.15-3.89-.62-5.59-1.44-3.18-1.6-6.66-2-9.93A108.22,108.22,0,0,1,67.79,273c.27-8,.22-16.05,0-24.07-.13-4.75,1.34-9.33,1.09-14.06a2,2,0,0,1,.22-1c1.49-2.89,1.46-6.22,1.89-9.23.64-4.44,1.89-8.7,2.76-13a56.34,56.34,0,0,1,1.48-6.88c1.11-3.35,2.73-6.5,3.75-9.84a78.08,78.08,0,0,1,4-10.55A200.63,200.63,0,0,1,96.6,158.85c4.5-6.85,9-13.78,14.2-20,3.67-4.37,6.92-9.2,11.4-12.89a25.24,25.24,0,0,0,3.49-3.52c2.92-3.62,7.06-5.79,10.43-8.88a56.38,56.38,0,0,1,5.67-4.73c4.52-3.14,9-6.39,13.68-9.28,3.5-2.14,6.77-4.71,10.41-6.54,11-5.53,21.85-11.45,33.67-15.17,5.13-1.62,10.23-3.53,15.49-4.5,4.27-.79,8.46-1.93,12.71-2.75,4.52-.86,9.07-1,13.57-1.69,3.51-.52,3.7-.3,3.72-4C245.08,59,245.05,53.08,245.06,47.18Z"/><path class="cls-1" d="M851.17,272.26a11.52,11.52,0,0,0-.45,4.71q0,42.66,0,85.32c0,5.6,0,5.61-5.72,5.61q-12.74,0-25.49,0c-1.06,0-2.12,0-3.18-.13a2,2,0,0,1-2-2.06c0-.94-.06-1.88-.06-2.83v-211c0-5.16,0-5.17,5-5.18q13.63,0,27.26,0c3.92,0,4.16.24,4.16,4.27,0,23.6.08,47.2-.06,70.8a9.75,9.75,0,0,0,3.66,8.23c5.27,4.54,10.29,9.38,15.4,14.11,2.68,2.49,2.69,2.53,5.51.37a299.2,299.2,0,0,0,32.68-29.25c15.53-16,29.54-33.09,40.43-52.61,2.64-4.74,5-9.65,7.41-14.5,1.71-3.41,1.69-3.47,4.94-1.82q10.73,5.46,21.41,11c3,1.57,3.06,1.63,1.71,4.91a210.78,210.78,0,0,1-24.35,43.44c-16.85,23.23-37.27,42.86-60.3,59.87-.48.35-1,.66-1.44,1-1.7,1.37-1.78,1.71-.12,3.3,3.32,3.19,6.7,6.31,10.11,9.4,13.71,12.46,26.94,25.44,41,37.49a89.33,89.33,0,0,0,20.74,13.42,38.28,38.28,0,0,0,16.82,3.49c3.13,0,3.21,0,3.22,3.11q.06,14.88,0,29.74c0,3.39-.35,3.75-3.85,4.16-6.56.78-12.93-.37-19.21-2.17-9.56-2.75-18-7.71-25.84-13.63a239,239,0,0,1-20.69-17.72q-27.72-26.33-55.54-52.55C860.07,280.55,855.76,276.55,851.17,272.26Z"/><path class="cls-1" d="M653,260.69c-.2,12.12.64,24.69,3.77,37A64.88,64.88,0,0,0,665,317.18c6.31,9.75,15.31,15.89,26.21,19.37a81.7,81.7,0,0,0,23.35,3.52,222.94,222.94,0,0,0,61-6.86c3.53-.92,3.74-.79,4.55,2.75,1.65,7.24,3.28,14.5,4.84,21.76.67,3.11.5,3.37-2.55,4.24a218.09,218.09,0,0,1-33.57,6.92,276.22,276.22,0,0,1-41,1.95c-13.13-.37-26.14-1.94-38.57-6.43-21.53-7.77-35.93-22.83-44.14-44-4.3-11.09-6.53-22.62-7.83-34.4a238.46,238.46,0,0,1-1.15-35.34c.66-17,2.74-33.86,8.36-50.08A84.51,84.51,0,0,1,644,168.43c8.43-8.58,18.66-14.35,30-18.28,10.88-3.78,22.12-5.5,33.59-6.38,9.71-.75,19.35-.25,29,.32a182.67,182.67,0,0,1,40.37,6.85c.45.13.91.25,1.35.42,2.33.86,2.57,1.19,2,3.68-1.36,5.86-2.81,11.7-4.23,17.55-.47,1.94-.91,3.9-1.47,5.83-.72,2.47-.93,2.63-3.53,2a198.5,198.5,0,0,0-20.5-3.89c-17.36-2.28-34.75-3.3-52.09.29-18,3.73-30.43,14.23-37.54,31.17-4,9.58-5.87,19.63-7,29.87A197.08,197.08,0,0,0,653,260.69Z"/><path class="cls-1" d="M1064.3,273.21V184c0-5.23,0-5.23-5.29-5.24H1004.5c-1,0-1.89,0-2.83,0-3.7-.09-4-.35-4-4.12q0-12,0-24.07c0-3.59.26-3.83,3.82-3.85,6-.05,12,0,18,0H1161.5c5.71,0,5.72,0,5.72,5.57q0,10.44,0,20.88c0,5.59,0,5.62-5.8,5.62h-54.51c-6.69,0-6.33-.24-6.33,6.41q0,88.14,0,176.28c0,6.44,0,6.44-6.39,6.44q-12.21,0-24.42,0c-.94,0-1.89,0-2.83,0-1.7,0-2.63-.84-2.61-2.61,0-1.18,0-2.36,0-3.54Z"/><path class="cls-1" d="M1386.69,422.91a12,12,0,0,1,2.47,0c3.47.73,6.87,1.31,9.91-1.32a3.39,3.39,0,0,1,1.7-.4c2.34-.31,3.86.34,4.08,1.72.38,2.38-.67,4.27-2.9,4.61-1.87.29-2.08,1.18-1.57,2.69a14.94,14.94,0,0,1,.62,5.94,10.36,10.36,0,0,1-7.88,9.75,27.43,27.43,0,0,1-10.52.6c-2.9-.26-4,.3-4.16,2.28s1.12,3.05,3.82,3.14c3.41.13,6.83.06,10.25.07a20,20,0,0,1,4.56.41,9.66,9.66,0,0,1,5.28,15.82c-2.72,3.34-6.49,4.61-10.51,5.25a39,39,0,0,1-11.61,0,16.4,16.4,0,0,1-5.06-1.5c-5.32-2.66-6.79-8.7-3.05-13.37,1.21-1.5,1.52-2.55.59-4.34-1.71-3.29-1-6.46,1.55-9.09,1-1.07,1.12-1.81.21-3-2.44-3.13-2.48-6.82-1.91-10.48.74-4.78,4.69-8.06,10.25-8.75,1.28-.16,2.59-.13,3.88-.19Zm-.26,35.88c-2,0-3.76,0-5.52,0a3.46,3.46,0,0,0-3.52,2.39c-.94,2.26.11,4.65,2.61,5.73a15.93,15.93,0,0,0,7.25,1.05c2.66-.16,5.46-.15,7.73-2,1.33-1.06,2.35-2.37,2-4.22s-1.82-2.28-3.37-2.65C1391.12,458.55,1388.64,458.93,1386.43,458.79Zm6.65-24.24c0-4.24-2-6.21-6.33-6.23s-6.44,2-6.44,6.49,2.1,6.51,6.5,6.45S1393.13,439.09,1393.08,434.55Z"/><path class="cls-1" d="M902.43,441v11.22c0,1.53,0,3.06,0,4.6s-.76,2.67-2.55,2.64c-.24,0-.47,0-.71,0-4.93.23-5.27-.06-5.28-5q0-18.22,0-36.44c0-.71,0-1.42,0-2.13.22-2.49.56-2.82,3-3h.35c5-.2,5.21,0,5.23,5,0,3.07.11,6.14,0,9.2-.1,2.3,1,3.73,2.65,5.06a2.25,2.25,0,0,0,3.39-.08C914,427.24,919,422,922.57,415.47c.59-1.06.85-2.82,2.58-2.4a7.47,7.47,0,0,1,4.51,2.57c.63.88,0,1.83-.43,2.67a43.41,43.41,0,0,1-7.61,11.44,66.93,66.93,0,0,1-7.47,7c-1.93,1.55-1.92,2-.24,3.59q3.87,3.64,7.81,7.19a15.63,15.63,0,0,0,7,4c2,.44,2.63,1.53,2.7,3.46.19,5-1,6-5.75,4.47-3.59-1.15-6.36-3.53-9-6-3.8-3.53-7.54-7.12-11.33-10.67A5.29,5.29,0,0,0,902.43,441Z"/><path class="cls-1" d="M625.82,435.92c0-6.49,0-13,0-19.47,0-3.56.32-3.94,3.78-4,5.78-.12,11.58-.42,17.33,0,9.31.64,14.59,3.59,14.71,15.43a25.52,25.52,0,0,1-.36,4.93c-1.44,7.54-5.6,11.33-13.26,11.76-3.53.2-7.08.06-10.62.11-3.16,0-3.35.24-3.41,3.47,0,2.71,0,5.43,0,8.14s-.5,3.05-3.1,3.19c-.47,0-.94,0-1.41,0-3.29-.08-3.53-.33-3.63-3.72V435.92Zm15.72-17v.21h-5.31a2,2,0,0,0-2.19,2.18c0,4.72,0,9.43,0,14.15a2.15,2.15,0,0,0,2.33,2.47,61.49,61.49,0,0,0,10.6-.22,6.48,6.48,0,0,0,5.91-5.69,17.07,17.07,0,0,0,.15-7c-.78-3.42-2.41-5.2-5.83-5.74C645.33,418.94,643.43,419,641.54,418.88Z"/><path class="cls-1" d="M780.25,447.9c0-6.95,0-13.91,0-20.86,0-1.33-.45-2.93,1.28-3.71s4.91-.4,5.82,1,1.89,1,3,.48a19.72,19.72,0,0,1,8.89-1.94,10,10,0,0,1,9.71,6.47,28.52,28.52,0,0,1,0,23c-2.19,5.13-6.8,7.32-12.21,7.72a32.51,32.51,0,0,1-6-.15c-1.72-.19-2.43.39-2.42,2.07,0,2.36,0,4.72,0,7.07,0,1.37.39,3.1-1.11,3.84a7.22,7.22,0,0,1-5.85.07c-1.22-.46-1-1.75-1-2.78,0-5.31,0-10.61,0-15.92Zm8-5.24h0c0,2.23,0,4.47,0,6.7,0,4,.63,4.62,4.76,4.71a15.22,15.22,0,0,0,3.17-.16,6.5,6.5,0,0,0,5.3-4.17,23.16,23.16,0,0,0,.08-16.24c-1.05-2.88-2.93-3.91-6-3.9a11.59,11.59,0,0,0-4.76,1.13,3.73,3.73,0,0,0-2.52,3.81C788.35,437.24,788.29,440,788.29,442.66Z"/><path class="cls-1" d="M1219.75,444.83c0,3.28,0,6.55,0,9.82,0,4.67-1.12,5.54-5.75,4.78a2.11,2.11,0,0,1-2-2c-.09-.94-.13-1.88-.13-2.83q0-19.63,0-39.28c0-.47,0-.94,0-1.41.18-3.24.6-3.64,3.79-3.69,3.65-.05,4.07.31,4.1,4,0,5.43,0,10.86,0,16.28a5.69,5.69,0,0,0,.86,3.7c2.17,2.86,2.92,2.95,5.44.43a31.7,31.7,0,0,0,6.64-9.52c.94-2.1,6-2.92,7.68-1.34a1.77,1.77,0,0,1,.27,2,21.44,21.44,0,0,1-2.9,5.65,51.74,51.74,0,0,1-7.14,8.3c-2.25,2.23-2.31,2.34-.09,4.38,3.35,3.09,6.28,6.81,11,8a1.6,1.6,0,0,1,1.2,1.58c.1,2.06,1,4.51-.94,6-1.79,1.3-3.89.28-5.67-.68a23.67,23.67,0,0,1-5.23-4.19l-10.32-10.14Z"/><path class="cls-1" d="M1351.61,423c10.42-.49,15.64,4.78,16.26,15.12A37.81,37.81,0,0,1,1367,450a12.35,12.35,0,0,1-9.5,9.47,23.23,23.23,0,0,1-13.24-.44,11.16,11.16,0,0,1-7.38-7.08,31.3,31.3,0,0,1-.42-20.14c1.68-5.46,5.83-8.08,11.28-8.82A29.69,29.69,0,0,1,1351.61,423Zm-8.14,17.15c.06,3.2,0,5.46.44,7.66.89,3.92,3.28,6,7.14,6.2,4,.24,6.79-1.58,7.89-5.61a28.27,28.27,0,0,0,.14-13.65c-.9-4.12-3.31-5.78-7.71-5.7-4.18.08-6.8,2.1-7.5,6.07A42.45,42.45,0,0,0,1343.47,440.13Z"/><path class="cls-1" d="M1281,441.28a28.47,28.47,0,0,1,.77-8.17c1.6-6,5.92-9.74,12.1-10.13,3.4-.22,6.82-.41,10.17.63a12,12,0,0,1,8.32,8,31.3,31.3,0,0,1-.07,19.81,11.73,11.73,0,0,1-8.73,8,24,24,0,0,1-12.58-.05,12,12,0,0,1-8.66-8.08A26.8,26.8,0,0,1,1281,441.28Zm8.13.13a22.52,22.52,0,0,0,.72,7c1.09,3.68,2.67,5.29,7.54,5.56a6.78,6.78,0,0,0,7.41-5.71,31.91,31.91,0,0,0-.06-14c-.82-3.62-3.22-5.17-7.35-5.22s-6.42,1.54-7.52,5A23.28,23.28,0,0,0,1289.14,441.41Z"/><path class="cls-1" d="M868.46,441.53q0,4.08,0,8.14a3.05,3.05,0,0,0,2,3.29c1.83.73,2.33,2.19,2.16,4.27-.14,1.84-1.5,2.29-2.88,2.6-2.92.66-5.73.49-7.64-2.19-.92-1.31-1.69-1.26-2.9-.52a18.31,18.31,0,0,1-10.37,3c-4.92-.17-8.15-2.71-9.13-7.26-1.14-5.26.71-9.34,5.23-11.49,3.68-1.76,7.72-2,11.65-2.78,1.37-.25,3.24.45,3.66-1.83.45-2.44-.32-4.86-2.09-6a7.92,7.92,0,0,0-4-1.11,30.91,30.91,0,0,0-8.42.8c-2.77.67-3-.06-3.64-2.83-.56-2.5-.17-3.1,2.37-3.75a36.81,36.81,0,0,1,13.7-.83c6.73.83,10.14,4.86,10.26,11.74,0,2.24,0,4.48,0,6.72Zm-8.13,5.93c0-4.23,0-4.2-3.94-3.73a19,19,0,0,0-4.47.93,7.5,7.5,0,0,0-2.73,1.56c-2.2,2.12-1.9,6.7.63,7.59,2.84,1,5.53.13,8.1-1.27A4.66,4.66,0,0,0,860.33,447.46Z"/><path class="cls-1" d="M1193,460.15c-11.93.43-17.38-6-17.48-17.26a28.49,28.49,0,0,1,1.37-9.75,14.51,14.51,0,0,1,13.49-10.21c1.52-.08,3.06-.08,4.59,0,6.16.29,10,3.56,11.46,9.62a22.77,22.77,0,0,1,.56,6.32c-.11,2.72-.57,3.33-3.37,3.45-5.18.22-10.33.94-15.53.87-4.6-.06-4.93.47-3.75,4.88.85,3.21,3.06,5.05,6.65,5.34a43.54,43.54,0,0,0,11.61-.76c2.7-.51,3.09-.19,3.56,2,.59,2.71.23,3.46-2.32,4.15A40.09,40.09,0,0,1,1193,460.15Zm-4.75-22.42a69.81,69.81,0,0,1,8.57-.65c1,0,1.81-.38,2-1.57a6.53,6.53,0,0,0-3.68-6.26,7.83,7.83,0,0,0-10.17,4.52C1183.65,436.87,1184.29,437.81,1188.24,437.73Z"/><path class="cls-1" d="M998.07,441.73c0,2.59,0,5.19,0,7.79,0,1.68.39,3,2.26,3.47,2.14.58,1.85,2.47,1.93,4.09.09,1.85-1.3,2.38-2.71,2.72-2.91.69-5.75.59-7.68-2.07-1-1.46-1.89-1.3-3.2-.5a18,18,0,0,1-10,2.92c-5.11-.15-8.28-2.72-9.25-7.56-1.07-5.32.82-9.2,5.52-11.33,3.6-1.63,7.52-1.92,11.33-2.63,1.38-.26,3.24.43,3.68-1.84.5-2.64-.38-5-2.39-6.18a8.34,8.34,0,0,0-3.74-.93,31.2,31.2,0,0,0-8.78.87c-1.78.43-2.6-.2-3-1.91-.69-2.66-.52-3.89,1.33-4.41,6.11-1.7,12.3-2.31,18.42,0,4.27,1.59,6.07,5.05,6.3,9.39.14,2.7,0,5.42,0,8.14ZM990,447.45c0-4.2,0-4.21-3.66-3.74-.93.13-1.88.16-2.78.38a10.25,10.25,0,0,0-4.48,2c-2.43,2.11-2.21,6.9.48,7.8,2.84,1,5.53.08,8.09-1.34A4.67,4.67,0,0,0,990,447.45Z"/><path class="cls-1" d="M1090.85,441.64c0,2.59,0,5.19,0,7.78,0,1.65.27,3,2.18,3.54,2.16.55,1.92,2.4,2,4,.11,1.84-1.2,2.44-2.63,2.79-2.91.71-5.79.69-7.69-2-1.21-1.7-2.17-1.23-3.5-.43a17.8,17.8,0,0,1-9.73,2.79c-5.15-.12-8.32-2.64-9.33-7.47-1.11-5.3.77-9.24,5.42-11.38,3.59-1.65,7.51-1.94,11.32-2.66,1.47-.27,3.5.46,3.79-2.11.33-2.83-.52-5-2.64-6a8.88,8.88,0,0,0-3.77-.81,38.45,38.45,0,0,0-8.43.82c-2.33.39-2.58.15-3.17-2.12-.69-2.63-.4-3.7,1.62-4.25,5.53-1.52,11.17-2,16.76-.44,5,1.38,7.42,4.61,7.71,9.81.15,2.7,0,5.42,0,8.14Zm-8.14,5.87c0-4.28,0-4.24-3.88-3.78a19.23,19.23,0,0,0-4.8,1,6.84,6.84,0,0,0-2.66,1.68c-2,2.11-1.57,6.49.8,7.34,2.83,1,5.52.16,8.1-1.22A4.63,4.63,0,0,0,1082.71,447.51Z"/><path class="cls-1" d="M725,437a41.42,41.42,0,0,1,.79-9.74c1.86-8.52,7.66-13.95,16.32-14.81a43.57,43.57,0,0,1,14.44.73c1.08.26,2.62.21,2.86,1.64a6.66,6.66,0,0,1-1.29,5c-.46.64-1.27.47-2,.37-1.87-.27-3.75-.46-5.6-.8a20.27,20.27,0,0,0-9.1.69,9.5,9.5,0,0,0-6.77,6.68,31.68,31.68,0,0,0-.14,19.17,9.18,9.18,0,0,0,8.59,6.8,45.64,45.64,0,0,0,13-.55c1.1-.22,2.48-.84,3.29.35a6.62,6.62,0,0,1,1,4.74c-.14.88-1.08,1.19-1.9,1.39-7.08,1.78-14.23,2.34-21.34.42-5.41-1.46-8.85-5.21-10.71-10.44A31.87,31.87,0,0,1,725,437Z"/><path class="cls-1" d="M934.64,438.72c0-4.13-.06-8.26,0-12.39,0-2.46.48-2.85,2.88-3.07a17.72,17.72,0,0,1,2.82,0,2.16,2.16,0,0,1,2.2,2.29c.06,1.41.09,2.83.09,4.24,0,5.9.11,11.8,0,17.7-.11,5.11,2.84,6.22,6.75,5.74a13.09,13.09,0,0,0,2.73-.72c2.84-1,3.27-1.57,3.29-4.65.05-6.26,0-12.51,0-18.76,0-.47,0-.95,0-1.42.07-4.15,2.48-5.7,6.5-4.24,1.28.46,1.46,1.4,1.47,2.5,0,2.83,0,5.66,0,8.5,0,4.83,0,9.67,0,14.51,0,2.06.12,3.95,2.9,4.45,1.8.32,1.27,2.29,1.52,3.59a2,2,0,0,1-1.63,2.39c-2.92,1-5.89,1.36-8.26-1.06a2.63,2.63,0,0,0-3.68-.55,19.69,19.69,0,0,1-9.87,2.33c-6.13-.21-9.57-3.62-9.78-9.74,0-.24,0-.48,0-.71v-11Z"/><path class="cls-1" d="M1275.74,444c0,4,0,8,0,12,0,3.13-.38,3.41-3.48,3.48-.82,0-1.65,0-2.47-.06a1.83,1.83,0,0,1-1.89-1.74,25.8,25.8,0,0,1-.17-3.17c0-5.77,0-11.55,0-17.33a24.27,24.27,0,0,0-.16-3.52,4.14,4.14,0,0,0-3.91-3.89,13.33,13.33,0,0,0-7.54,1.4c-1.73.82-1.8,2.31-1.8,3.88v17.33c0,1.41,0,2.84,0,4.24-.18,2.4-.58,2.73-3.07,2.86-.47,0-1,0-1.42,0-3.09-.09-3.44-.37-3.47-3.5,0-7.31,0-14.62,0-21.93,0-2.24-.06-4.48,0-6.72,0-1.32-.53-3.05,1.24-3.69s4.15-1.13,5.34.38c1.55,1.94,2.75,1.11,4.23.47a21.24,21.24,0,0,1,9.68-1.58c5.38.32,8.73,3.6,8.92,9,.14,4,0,8,0,12Z"/><path class="cls-1" d="M677,439.66c0-5.08,0-10.15,0-15.22,0-3.94-.22-4.11-4.27-4.16-2.24,0-4.49.06-6.72-.06-2.51-.15-3-.88-3-3.74s.52-3.5,3.14-3.51q15-.08,30.09,0c2.63,0,3,.56,3,3.61s-.37,3.51-3,3.64c-2.47.12-5,0-7.43.08-2.64.09-3.12.54-3.19,3.12-.1,3.42,0,6.85,0,10.27,0,7.08,0,14.16,0,21.23,0,1.48.47,3.44-1.18,4.14a8.51,8.51,0,0,1-6.22,0c-1.31-.49-1.09-2-1.1-3.12,0-4.72,0-9.44,0-14.16Z"/><path class="cls-1" d="M1164.34,440.13c0,5.07,0,10.14,0,15.2,0,3.89-.35,4.15-4.32,4.13-.71,0-1.41,0-2.12-.07a1.83,1.83,0,0,1-1.88-1.75,27.81,27.81,0,0,1-.18-3.17q0-13.79,0-27.57c0-.82,0-1.65,0-2.47-.06-3.87-.3-4.1-4.32-4.15-1.76,0-3.53,0-5.3,0-3.67-.07-5.31-2.77-3.78-6.14a1.58,1.58,0,0,1,1.31-1,18.51,18.51,0,0,1,2.47-.15q14,0,27.92,0c1.24,0,2.86-.44,3.49,1a7,7,0,0,1,.05,5.18c-.37,1-1.5,1.05-2.43,1.08-2.36.06-4.71,0-7.07.07-3.45.07-3.77.38-3.8,3.94,0,5.3,0,10.6,0,15.9Z"/><path class="cls-1" d="M1111.87,422.9a25.75,25.75,0,0,1,7.62.85c1,.25,2.19.52,2.32,1.82a5.3,5.3,0,0,1-1.18,4.28c-.52.57-1.31.31-2,.19-1.62-.3-3.25-.6-4.88-.84a11.18,11.18,0,0,0-6.24.68c-2.93,1.28-3.19,4.28-.56,6.08a14.92,14.92,0,0,0,4.94,1.86,34.13,34.13,0,0,1,6.36,2.11,9.44,9.44,0,0,1,5.84,9.27,9.75,9.75,0,0,1-6,9.25c-3.74,1.78-7.75,1.89-11.78,1.63a32.89,32.89,0,0,1-7.29-1.29c-2.38-.72-2.74-1.53-2-4.3.49-2,.9-2.2,3.39-1.76q3.46.61,7,1.17a11,11,0,0,0,6.24-.74c3-1.3,3.27-4.61.62-6.44a16.56,16.56,0,0,0-5.57-2.18,26.61,26.61,0,0,1-6.28-2.31,9.08,9.08,0,0,1-5.06-8.67c.08-3.89,1.6-7.09,5.22-9C1105.43,423,1108.57,422.76,1111.87,422.9Z"/><path class="cls-1" d="M1040.85,441.4c0-2.71,0-5.42,0-8.13,0-3.22-.06-3.22-3.23-3.69-2.3-.34-3-1.32-2.75-3.54.2-1.59,1.17-2.1,2.61-2.35,3.16-.54,3.15-.59,3.59-3.55.06-.47.13-.93.21-1.4.58-3.19,3.27-4.6,6.19-3.25,1.15.54,1.25,1.6,1.37,2.66.59,5,.59,5,5.62,5,.71,0,1.42,0,2.12.05,2.57.24,3.16,1,3,3.69-.08,1.71-.84,2.62-2.59,2.64s-3.77.06-5.65.07a2.14,2.14,0,0,0-2.43,2.37c0,5.77-.08,11.54.09,17.31.07,2.53,1.56,3.76,4.08,4a13.19,13.19,0,0,0,4.19-.49c1.74-.38,2.62.39,3,2.09.55,2.53.34,3.59-1.37,4.09a21.66,21.66,0,0,1-10.8.82c-4.22-.91-6.66-3.91-7.15-8.54a9.43,9.43,0,0,1-.07-1.06V441.4Z"/><path class="cls-1" d="M829.37,460.14c-7.15,0-10.7-3.35-10.87-10.36-.13-5.43,0-10.86-.06-16.29,0-3.39,0-3.47-3.37-3.88-1.72-.22-2.56-1-2.64-2.67-.08-2,.53-2.79,2.47-3.2,3.35-.72,3.35-.72,3.8-4.13.06-.47.11-.94.21-1.4.55-2.72,1.33-3.22,4.58-3,2.37.18,2.75.62,3,3.43,0,.47,0,.95,0,1.42.21,2.57.58,2.93,3.28,3.06,1.41.07,2.83,0,4.24.07,2.62.18,3.18.78,3.19,3.18s-.54,3-3.14,3.17c-1.77.09-3.54.05-5.31.08a2,2,0,0,0-2.21,2.21c0,5.9-.08,11.8.1,17.7.07,2.32,1.6,3.49,4,3.74a16.16,16.16,0,0,0,4.21-.44c2-.3,2.6.19,3.08,2.41.54,2.48.25,3.24-1.78,3.82A21.9,21.9,0,0,1,829.37,460.14Z"/><path class="cls-1" d="M1318.74,431.31c0-5.66,0-11.33,0-17,0-1.36-.41-3.15,1.2-3.77a8.36,8.36,0,0,1,5.89.08c.71.26.82,1.1.85,1.82,0,1.06.06,2.13.06,3.19q0,14.69,0,29.38c0,1.18,0,2.37.09,3.54.35,3.72,1,4.39,4.76,4.41,1.36,0,1.85.6,2.15,1.79.84,3.46.24,4.52-3.27,5.14a15.27,15.27,0,0,1-3.88.17c-4-.29-6.3-2.29-7.19-6.15a28.77,28.77,0,0,1-.7-6.68C1318.76,441.93,1318.74,436.62,1318.74,431.31Z"/><path class="cls-1" d="M1005.51,432.35c0-6.14,0-12.27,0-18.41,0-1.24-.39-2.88,1.17-3.4a8.44,8.44,0,0,1,5.88.11c.68.28.83,1.11.88,1.82.06,1.06.08,2.13.08,3.19v30.8c0,1.06,0,2.13.08,3.18.27,2.68,1.21,3.51,3.83,3.54,2.42,0,2.76.3,3.09,2.65s0,3-2.16,3.72a12.62,12.62,0,0,1-6.3.42,7.23,7.23,0,0,1-6-5.37,16.93,16.93,0,0,1-.6-4.9Z"/><path class="cls-1" d="M1023.84,441.17c0-4.83,0-9.65,0-14.47,0-3,.66-3.45,3.92-3.5s4,.46,4,3.4q.11,14.82,0,29.64c0,2.81-.53,3.14-3.42,3.22-.59,0-1.18,0-1.76,0-2.28-.18-2.67-.48-2.76-2.75-.1-2.94,0-5.88,0-8.82v-6.7Z"/><path class="cls-1" d="M773.54,441.43c0,4.82,0,9.65,0,14.47,0,1.25.27,2.88-1.35,3.29-1.92.48-4,.73-5.84-.28-1-.55-.82-1.87-.83-2.92q0-6.72,0-13.42c0-5.06,0-10.12,0-15.18,0-1.34-.45-3.06,1.21-3.74a7.2,7.2,0,0,1,5.84.11c1.13.53.95,1.81,1,2.84C773.55,431.54,773.54,436.49,773.54,441.43Z"/><path class="cls-1" d="M1027.86,409.91c2.86,0,4.54,1.61,4.49,4.25s-1.9,4.07-4.76,4-4.47-1.54-4.42-4.28S1024.85,409.89,1027.86,409.91Z"/><path class="cls-1" d="M769.62,409.91c2.9,0,4.63,1.64,4.57,4.2s-2,4.11-4.76,4.07-4.6-1.74-4.56-4.27S766.72,409.86,769.62,409.91Z"/><path class="cls-1" d="M705.53,455.6c-.08,2.75-1.77,4.27-4.59,4.11s-4.28-1.83-4.13-4.61c.15-2.61,1.61-3.88,4.43-3.85S705.61,452.76,705.53,455.6Z"/></g></g></svg>