<svg xmlns="http://www.w3.org/2000/svg" viewBox="0 0 1557 722.56"><defs><style>.cls-1{fill:#ff3b3b;}</style></defs><g id="Layer_2" data-name="Layer 2"><g id="Layer_1-2" data-name="Layer 1"><path class="cls-1" d="M1557,130.16c-1.72.06-3.45.17-5.17.17H1446.89c-5.05,0-5.06,0-5.06,5.14V451.7c0,6.8.53,6.51-6.62,6.51h-50.06c-5.16,0-5.17,0-5.17-5.16V136.47c0-6.81.57-6.12-6.11-6.12q-52.14,0-104.26,0c-5.43,0-5.44,0-5.44-5.59q0-21.91,0-43.84c0-.92,0-1.84,0-2.76.2-2.12.59-2.49,2.81-2.64,1-.07,2.07,0,3.11,0h282c1.61,0,3.22.08,4.83.12Z"/><path class="cls-1" d="M1430,722.56c-1.44-.39-2.87-.8-4.32-1.16a29.08,29.08,0,0,1-6.42-2.47c-10.4-5.47-9.71-19.12-3.12-24.6a20,20,0,0,1,1.55-1.37c1.26-.87,1.14-1.58.2-2.75a13.94,13.94,0,0,1,1.44-19.53,11.49,11.49,0,0,1,1.32-1.1c1.15-.76,1.17-1.48.21-2.48-5.79-6-6.37-13.27-4.92-20.91A17.28,17.28,0,0,1,1426.46,633a25.41,25.41,0,0,1,8.62-2.33c6.55-.41,13.13-.73,19.41,1.81,1.66.67,2.7.11,3.91-1.07,3.75-3.66,8.36-4.59,13.39-3.65,2.15.4,2.49.92,2.29,3.05-.1,1-.32,2-.45,3.07-.56,4.49-.56,4.49-5,4.68a9,9,0,0,0-1.71.23c-2.58.58-2.78.92-1.74,3.49a27.15,27.15,0,0,1,1.2,15.28c-1.28,7.19-5.66,11.93-12.63,14.15a43.2,43.2,0,0,1-21.48,1c-3.58-.67-5.85.74-6.64,4.07-.71,3,.88,5.37,4.26,6.41a14.75,14.75,0,0,0,4.43.49c6.44,0,12.89,0,19.33,0a27.89,27.89,0,0,1,8.17,1.13c7.33,2.2,11.53,7.57,11.71,15.22.21,8.16-3.55,14.08-10.53,18.06a34.18,34.18,0,0,1-8.7,3.25c-1.45.36-2.88.77-4.32,1.16Zm11.3-9.82a33.58,33.58,0,0,0,11.5-1.67,12.59,12.59,0,0,0,6-4c3.35-4.17,1.7-9.36-3.38-10.85a16.68,16.68,0,0,0-4.09-.52c-7.46-.25-14.94.43-22.39-.46a3.19,3.19,0,0,0-2.5.94,8.13,8.13,0,0,0-3.09,5.58c-.42,4.07,1.26,7.08,5.13,8.85S1436.59,712.76,1441.26,712.74Zm-.38-48.87v-.08c.69,0,1.38,0,2.06,0,7-.35,10.24-3.64,10.45-10.58,0-.92,0-1.84,0-2.76-.28-6.17-2.9-9.42-9-10.27-11-1.54-17.54,3.64-15.1,15.85.94,4.72,3.72,7.08,8.5,7.65C1438.81,663.8,1439.85,663.81,1440.88,663.87Z"/><path class="cls-1" d="M261.9,525.22c-6.21,0-12.42,0-18.64,0-2.5,0-5,.34-7.4-1a4.14,4.14,0,0,0-2-.21c-5.41.1-10.64-.93-15.95-1.88-4.6-.83-9.19-1.77-13.8-2.59a136,136,0,0,1-13.9-3.64,202.83,202.83,0,0,1-27.72-10c-7-3.14-14.09-6-20.94-9.45-3.57-1.81-6.9-4-10.41-5.93-5.81-3.17-11.33-6.87-16.85-10.53-3.8-2.52-7.44-5.28-11-8.07-5.43-4.18-10.58-8.7-15.8-13.13A109.15,109.15,0,0,1,74,445.92c-4.11-4.9-8.91-9.17-12.68-14.41-2.71-3.78-5.91-7.23-8.69-11-6.73-9.11-12.73-18.68-18.57-28.39a219.51,219.51,0,0,1-12-23.56,121,121,0,0,1-6.52-16.88,94.74,94.74,0,0,0-3.65-9.59,46,46,0,0,1-1.16-4.66C9,331.51,7.4,325.57,5.8,319.62A27.81,27.81,0,0,1,5,314.55c-.28-3.55-1.41-6.91-1.86-10.42a86.81,86.81,0,0,0-1.54-10.48c-.69-2.72-.24-5.5-.34-8.25-.06-1.83.12-3.67-.86-5.38A6,6,0,0,1,0,277q0-13.64,0-27.27a6.08,6.08,0,0,1,.17-2.39c1.55-3.41.75-7,1.11-10.53.49-4.76.82-9.52,1.77-14.26.84-4.22,1.76-8.47,2.33-12.76A90,90,0,0,1,8,198.06c1.35-4.94,2.49-9.95,4.21-14.81,3.29-9.26,6.37-18.57,10.53-27.51,2.36-5.08,4.49-10.28,7.28-15.15C34.39,133,38.27,125,43.5,117.94c2.58-3.48,5-7.08,7.62-10.54,1.7-2.24,3.82-4.25,5-6.91a2.39,2.39,0,0,1,.61-.83c3.68-3.15,6.26-7.27,9.58-10.76,5.86-6.14,11.35-12.61,17.43-18.55C87.65,66.5,92.18,63.4,96.3,59.8c2.34-2,4.7-4,7.17-5.87q8.09-6.1,16.6-11.58c4.51-2.89,9-5.77,13.67-8.45,3.58-2.07,7.29-3.91,11-5.68,5.59-2.65,11.22-5.24,16.89-7.71,4.09-1.77,8.26-3.38,12.43-4.93,3.33-1.24,6.67-2.45,10.08-3.39C192.4,9.92,200.58,7.36,209,5.85c3.81-.68,7.58-1.47,11.33-2.43a34.13,34.13,0,0,1,7.49-.8C233,2.5,238,1,243.15,1c8.72.09,17.38-1.28,26.13-1,6.07.21,12.15.59,18.13,1.25,5.65.63,11.38,1,17,2.1,2.64.5,5.43.73,8,1.92,1.76.83,3.81.48,5.74.91,6,1.33,11.88,3.21,17.84,4.65a184.77,184.77,0,0,1,21.48,7.06,223.49,223.49,0,0,1,31.15,14.39c8.16,4.58,16.37,9.17,23.87,14.77,5.48,4.09,11.17,7.91,16.38,12.46,3.56,3.11,6.91,6.59,11,9.23,3.11,2,5.41,5.28,8.15,7.9,5.08,4.82,9.32,10.41,14,15.57a124.42,124.42,0,0,1,12.35,15.52c4.05,6.2,8.53,12.08,12.43,18.41a321.79,321.79,0,0,1,16.63,31.62,175.2,175.2,0,0,1,8.33,22.09c1.85,5.88,3.83,11.71,5.18,17.74,1.14,5.12,2.93,10.14,3.57,15.32.82,6.78,3,13.42,2.48,20.37a4.24,4.24,0,0,0,.12,2.05c1.76,3.61,1,7.45,1.13,11.2.12,3.19-.34,6.42,1,9.51a7.13,7.13,0,0,1,.21,3.07c-.27,5.59.61,11.19-1,16.76-.76,2.54-.14,5.49-.18,8.25,0,2.51.32,5.06-1,7.42a4.23,4.23,0,0,0-.23,2c0,5.06-1.05,10-1.87,14.92-.75,4.63-1.81,9.19-2.62,13.8a52.35,52.35,0,0,1-2.14,8.27,134.8,134.8,0,0,0-4.12,13c-2.45,9.85-6.87,18.86-10.71,28.15-3.16,7.67-7.6,14.58-11.47,21.84-2.54,4.76-5.72,9.1-8.26,13.85-1.59,3-4,5.58-5.92,8.4a140,140,0,0,1-10.48,13.93c-4.19,4.68-8,9.68-12.68,14-5.3,4.93-10.28,10.21-15.42,15.31a153.78,153.78,0,0,1-17.16,14.22c-6,4.42-12.14,8.57-18.4,12.58a94.07,94.07,0,0,1-12.16,7c-3.75,1.67-7,4.28-10.83,5.92-6.73,2.87-13.25,6.2-20.19,8.61a41.18,41.18,0,0,0-6.66,2.68c-3.25,1.86-6.83,2.68-10.31,3.73a151.67,151.67,0,0,1-14.88,4c-5.15,1-10.07,3.09-15.3,3.62-6.92.71-13.65,3-20.71,2.47a3.61,3.61,0,0,0-1.71.08c-4.29,2-8.82,1-13.25,1.14C271.11,525.33,266.5,525.22,261.9,525.22ZM438,245.4h29.69c9.43,0,18.87,0,28.3,0,3.66,0,3.66-.23,3.93-4,.32-4.63-1.25-9.1-1-13.71a1.41,1.41,0,0,0-.13-.67c-1.54-3.38-1.31-7.13-2.26-10.65-1.07-4-1.37-8.14-2.65-12s-2.41-7.9-3.39-11.86a131.84,131.84,0,0,0-6.12-17.47c-2.55-6.36-5.14-12.73-8.31-18.84-1.69-3.25-3.56-6.38-5.27-9.59A185.85,185.85,0,0,0,460,129.11c-2.69-4-5.48-7.86-8.44-11.62-3.54-4.49-6.81-9.19-10.85-13.26-2.35-2.37-4.73-4.71-7.07-7.08-6.6-6.7-13.24-13.36-20.45-19.42a6.39,6.39,0,0,0-1.37-1c-2.53-1.14-4.48-3.16-6.62-4.79-3.26-2.51-6.54-5-9.92-7.35-8.31-5.7-17.43-10.07-26.1-15.2-3.1-1.83-6.62-2.63-9.7-4.38-5.11-2.91-10.79-4.37-16.21-6.47-4.89-1.9-10-3.19-15-4.8a181.72,181.72,0,0,0-20-4.78,112.2,112.2,0,0,0-12.09-2.06c-4.1-.37-8.23-.34-12.22-1.49a3.61,3.61,0,0,0-1,0c-2.71.08-3.06.31-3.07,2.95q-.06,18.47,0,36.93c0,2.61.65,3.29,3.27,3.42a73.6,73.6,0,0,1,10.45,1.63c4.67.9,9.41,1.72,14.07,2.74,6.06,1.34,11.83,3.5,17.78,5.11,6.13,1.65,11.93,4.57,17.81,7.08A162.42,162.42,0,0,1,363,95.71,104.42,104.42,0,0,1,375,103.58c3.2,2.56,6.59,4.9,9.84,7.43a93.49,93.49,0,0,1,8,6.36c10.24,10,20.77,19.8,28.79,31.82,3.93,5.9,8.09,11.64,11.47,17.89,2.71,5,5.32,10.09,7.75,15.26,1.61,3.44,3,6.94,4.39,10.46,3.31,8.53,5.23,17.48,7.65,26.28,1,3.73-.1,5-4,5.14-4.55.16-9.19-.7-13.63,1.09a5.8,5.8,0,0,1-2.05.11c-3.46,0-6.91,0-10.36,0-3.83,0-4.18-.32-5.4-3.9-.37-1.08-.82-2.14-1.16-3.23-3.14-9.95-6.62-19.76-11.6-29-1.63-3-3.33-6-5-9a33.3,33.3,0,0,0-2-3.6c-2.38-3.21-4.92-6.32-7.18-9.58a68.39,68.39,0,0,0-7.07-8.78c-8.22-8.46-16.22-17.14-25.89-24.13C350.36,129,342.69,124.52,335,120c-1.81-1.08-3.92-1.25-5.75-2.2a105.37,105.37,0,0,0-24.11-8.66c-4-1-7.87-2.34-12-2.77a38.1,38.1,0,0,1-7.39-1.19c-4.9-1.55-10-1.53-14.91-1.74-11.07-.47-22.15-.3-33.18,1.83-6.5,1.26-13,2.43-19.37,4.2-3.64,1-7.14,2.49-10.77,3.52a79.93,79.93,0,0,0-11.83,4.48,151.51,151.51,0,0,0-26.4,15.23,157.82,157.82,0,0,0-17.14,14.17c-4.26,4.15-8.6,8.22-12.22,13s-7.46,9.56-11,14.49c-1.19,1.66-1.94,3.65-3.13,5.32a96.58,96.58,0,0,0-6.35,11c-3.9,7.26-6.62,15.06-9.24,22.86a93.45,93.45,0,0,0-3.86,14.2c-.7,4.16-2,8.23-2,12.49a7.14,7.14,0,0,1-.63,2.66c-.71,1.78-.38,2.28,1.42,2.5a21.54,21.54,0,0,0,2.41.05h36.94c.92,0,1.84,0,2.76-.1a1.65,1.65,0,0,0,1.65-1.47,92.19,92.19,0,0,1,3.29-12.91c1.61-4.75,3-9.57,5.12-14.12,1.91-4,4.23-7.84,6.26-11.79a91.59,91.59,0,0,1,12.82-18.15,96.52,96.52,0,0,1,14.43-13.76,132.67,132.67,0,0,1,19.25-12.46c4.17-2.13,8.57-3.75,12.93-5.48a90.25,90.25,0,0,1,12.68-4.06c5.41-1.28,10.91-2.58,16.57-2.37a7.93,7.93,0,0,0,2-.3,42.56,42.56,0,0,1,15.42-.25c4.39.65,8.83.77,13.24,1.58A102.58,102.58,0,0,1,299.51,154c6.81,2.5,13.64,5.06,19.91,9.07,7.56,4.82,15,9.67,21.23,16.18,4.84,5.05,10.14,9.68,14.11,15.5a147.88,147.88,0,0,1,11.91,20.07,107.24,107.24,0,0,1,5.78,13.92,83.4,83.4,0,0,1,2.8,11.65c.65,4.29,1.55,5,5.77,5Zm-334.32,36c1.3,3.89,1,8,1.76,12.08a171.53,171.53,0,0,0,6.45,23.43,160,160,0,0,0,13.19,28.27c4,6.94,8.92,13.23,13.64,19.64,2.62,3.56,6.16,6.43,9.19,9.71,2.46,2.68,5.43,4.9,7.87,7.59,2.58,2.85,5.81,4.85,8.77,7.16a45.93,45.93,0,0,0,5.16,4c4.46,2.56,8.62,5.61,13,8.29a88,88,0,0,0,13.43,6.91c6.88,2.74,13.68,5.72,20.8,7.9a108.06,108.06,0,0,0,13.24,3.3c5.93,1,11.81,2.85,18,2.42a2.67,2.67,0,0,1,1.36.15c2.79,1.54,5.82,1,8.78,1.05,4.14.06,8.28,0,12.42,0a7.31,7.31,0,0,0,3.06-.29c2.19-1.11,4.46-.9,6.75-.95a11.62,11.62,0,0,0,3.08-.19c5.13-1.64,10.55-1.63,15.75-3.08,4.83-1.35,9.7-2.66,14.44-4.25s9.37-3.05,13.67-5.54c2.89-1.67,6.3-2.31,9.09-4,6.81-4.19,13.9-7.95,20.31-12.8,3.74-2.82,7.81-5.21,11.2-8.47,4-3.83,7.72-7.89,11.77-11.64,3.64-3.38,6.57-7.36,9.6-11.2,3.52-4.45,7.13-8.92,9.74-14,1.67-3.26,3.95-6.15,5.52-9.49,2.14-4.55,4.45-9,6.28-13.72a106.36,106.36,0,0,0,5.34-16.27c1-4.79,2.58-5.47,7.26-6.21a14.9,14.9,0,0,1,2.41,0h16.91a9.14,9.14,0,0,0,4.35-.78c1.91-.95,3.76-.34,5.57.66,1.14.63,1.53,1.41,1.05,2.51a22,22,0,0,0-1.75,6.22c-.45,4.51-2.54,8.55-3.06,13a24.74,24.74,0,0,1-1.84,6.25,222.83,222.83,0,0,1-10.59,23.49c-1.85,3.43-3.35,7.06-5.4,10.36q-5.06,8.15-10.64,16a118.16,118.16,0,0,1-9.77,12.36,276.26,276.26,0,0,1-25.09,24c-1.49,1.23-3.13,2.31-4.71,3.38-2.19,1.48-4.08,3.3-6.26,4.78-3.5,2.38-7.15,4.51-10.76,6.71-3.3,2-6.61,4.12-10.09,5.81-4.62,2.25-9.09,4.79-14,6.57-4.39,1.61-8.68,3.53-13.15,5-4,1.31-8,2.69-12.1,3.74-5.85,1.49-11.74,2.79-17.62,4.13-4.77,1.09-9.7,1.26-14.51,2.27-1.75.37-2.67,1.17-2.67,3,0,.58,0,1.15,0,1.73q0,17.25,0,34.51c0,.69,0,1.38.05,2.07a1.86,1.86,0,0,0,1.94,2c.8.05,1.61,0,2.41.08,3.71.46,7.28-.83,10.94-.9,3.44-.06,6.76-1.07,10.07-1.74,4.1-.83,8.24-1.8,12.34-2.67,3.8-.81,7.5-2,11.24-2.94,4.74-1.24,9.28-3.26,14-4.66,8.48-2.53,16.29-6.62,24.41-10,4.27-1.77,7.9-4.65,12-6.6a96.09,96.09,0,0,0,10.66-6.24c5.59-3.55,10.95-7.4,16.18-11.47,6.14-4.77,12.49-9.25,17.92-14.87,2.28-2.36,4.73-4.56,7.17-6.76,1.43-1.3,3.42-2.06,4.34-3.81,1.5-2.82,4-4.75,6-7.06a75.39,75.39,0,0,0,5.85-7.14c2.59-3.78,5.48-7.31,8.13-11,3.84-5.4,7.46-10.95,11.2-16.42,1.89-2.76,3.12-5.88,5-8.62a95.38,95.38,0,0,0,9.08-17.69c3.2-7.93,6.77-15.76,9-24.08.7-2.65,1.9-5.21,2.33-7.89.57-3.64,1.74-7.11,2.57-10.67,1.28-5.43,3-10.76,3.13-16.4a4.78,4.78,0,0,1,.22-1.36c1.46-4.51,1.63-9.2,1.83-13.86.21-5.16.05-5.17-5-5.17H381.24c-.81,0-1.61,0-2.42,0-1.33,0-1.89.65-2.49,1.86-1,2.05-.9,4.23-1.39,6.32a113.93,113.93,0,0,1-7.07,20.76,107.61,107.61,0,0,1-12.78,21.85c-3.73,4.81-7.8,9.3-11.9,13.72-3.16,3.38-7.19,6-10.45,9.39a1.79,1.79,0,0,1-.28.2c-6.07,4.08-12.34,7.82-18.65,11.51a15,15,0,0,1-3.69,1.84c-3,.75-5.71,2.27-8.64,3.23-4,1.32-7.93,3.11-12.11,3.7-5.63.81-11.16,2.48-16.92,2.33a1.91,1.91,0,0,0-1,.2c-1.89,1.13-4,1-6,.94-4.1-.14-8.15.12-12.28-1-3.44-.9-7.2-.85-10.81-1.3A94.15,94.15,0,0,1,229,373.48a106,106,0,0,1-23.29-10,62.51,62.51,0,0,1-10.86-7.12c-2.92-2.55-6.43-4.4-9.09-7.25-4.84-5.18-10.38-9.67-14.57-15.52A102.51,102.51,0,0,1,164.6,324c-4-7.3-8.17-14.6-10.79-22.58-1.6-4.87-3.48-9.68-4-14.86-.14-1.35-.61-2.68-.84-4a1.79,1.79,0,0,0-1.9-1.61c-.69,0-1.38,0-2.07,0q-19,0-38,0C105.92,280.85,104.72,280.51,103.65,281.43Zm142-234.51c0-6,0-12,0-18,0-3.41-.18-3.61-3.46-3.59-4.46,0-8.78,1.32-13.22,1.7-2.27.19-4.66-.07-6.82.6-3.61,1.12-7.39,1.51-11,2.67-1.8.59-3.66.3-5.42.83-5.57,1.71-11.12,3.49-16.73,5.06a158.06,158.06,0,0,0-17,6.24,39.8,39.8,0,0,0-5.11,2c-5,3-10.53,5-15.7,7.75A211.11,211.11,0,0,0,124.72,68.6c-3.22,2.37-6.33,4.91-9.57,7.21a99,99,0,0,0-10,8.26c-7.26,6.68-14.07,13.84-21.06,20.82a6.87,6.87,0,0,0-1.39,1.52c-1.87,3.63-5.08,6.18-7.52,9.35-3.07,4-5.81,8.19-8.84,12.18-2.3,3-3.95,6.46-6.19,9.47-4.56,6.13-6.65,13.61-11.23,19.68-1.21,5.45-4.86,9.81-6.56,15.08-1.54,4.77-3.76,9.33-5.25,14.14-2.8,9.05-6,18-7.61,27.36-.4,2.34-1,4.75-1.36,7.05-.46,2.92-1.44,5.73-1.68,8.7-.42,5.14-1.1,10.26-.92,15.43a4.3,4.3,0,0,1-.44,2,9.31,9.31,0,0,0-.71,4.38q0,11.39,0,22.78a6.85,6.85,0,0,0,.37,3.4c.94,1.72.81,3.55.85,5.39.06,2.52-.42,5.12.28,7.56,1,3.54.75,7.21,1.62,10.81a92.3,92.3,0,0,1,1.89,9.39,35.29,35.29,0,0,0,.75,5.43c1.88,6.11,3.21,12.37,5.15,18.48s4,11.9,6.25,17.75c1.64,4.26,3.86,8.29,5.59,12.51,1,2.44,1.7,5.06,3.22,7.19a58.45,58.45,0,0,1,4.25,7.44,104.93,104.93,0,0,0,5.6,9.43c5,7.77,10.29,15.38,16,22.7a139.66,139.66,0,0,0,10.76,12.89q9.12,9.18,18.31,18.29a14.26,14.26,0,0,0,2.52,2.34c3.35,2,6.11,4.75,9.24,7,3.4,2.49,6.61,5.29,10.09,7.62,7,4.7,14,9.59,21.73,13.06,2.94,1.32,5.27,3.74,8.41,4.58a19.26,19.26,0,0,1,3.81,1.55,172.05,172.05,0,0,0,22.43,9.41c4.66,1.59,9.24,3.46,14,4.73,5.6,1.49,11.13,3.3,16.91,4.13,4.17.59,8.23,2.17,12.33,2.57,5,.48,10,1.53,15.06,1.2,3.74-.24,3.89-.19,3.89-3.94q0-17.43,0-34.86c0-.69,0-1.38-.05-2.07a2.21,2.21,0,0,0-2.11-2.33c-2.53-.14-5-1-7.38-1.26-3-.31-5.87-1-8.85-1.22a36.91,36.91,0,0,1-7.68-1.58,72.9,72.9,0,0,0-9.53-2.64c-7-1.09-13.36-4.08-19.87-6.47a113.52,113.52,0,0,1-18.49-8.17,47.21,47.21,0,0,0-5.6-3.27c-3.22-1.32-5.89-3.54-9-5.08a35,35,0,0,1-6.86-4.57c-3.85-3.25-8-6.05-11.88-9.29-5.44-4.56-10.74-9.24-16-14-1.65-1.5-2.45-3.58-4-5.1a103.66,103.66,0,0,1-15.72-19c-4.49-6.91-9.35-13.59-13.08-21a212.4,212.4,0,0,1-10-21.86c-2.2-5.91-3.67-12-5.92-17.92A37.16,37.16,0,0,1,71.25,305c-.46-6.16-2.58-12.08-2.39-18.3a2.06,2.06,0,0,0-.23-1c-1-1.79-.91-3.76-.91-5.71q0-16.41,0-32.8c0-1.15-.23-2.45.22-3.41,1.82-3.85,1-8.09,2-12.12,1.16-4.69,1.34-9.69,2.5-14.46,1.37-5.66,2.29-11.47,4.41-16.9,3.28-8.41,6.21-17,10.58-25,2.82-5.12,5.36-10.38,8.65-15.23,3.4-5,6.91-9.94,10.29-14.94,3.68-5.44,8.29-10,12.32-15.14,3-3.76,6.74-6.9,10.17-10.3A23.65,23.65,0,0,1,131,118c2.7-2.09,5.59-4,8.09-6.29a63.36,63.36,0,0,1,7.57-5.92c8.82-5.93,17.6-12,27.27-16.5,6.53-3.07,13.06-6.15,19.6-9.19a25.49,25.49,0,0,1,3-1c3.26-1,6.48-2.3,9.8-3.09,3-.71,5.85-2.22,8.91-2.49,4.47-.41,8.71-1.86,13.08-2.68s9-1.1,13.49-2c3.82-.73,3.92-.27,3.93-4.34C245.66,58.65,245.65,52.78,245.65,46.92Z"/><path class="cls-1" d="M1009.4,291.75a10.47,10.47,0,0,0-.43,4.51q0,78,0,156c0,5.92,0,5.92-5.81,5.92H951.72c-5.23,0-5.24,0-5.24-5.11V80.64c0-5.14,0-5.16,5.18-5.16h52.12c.69,0,1.38,0,2.07,0,2.59.15,2.95.5,3.08,3.07.06,1.14,0,2.3,0,3.45q0,63.51-.07,127a9.5,9.5,0,0,0,3.36,7.78c10.73,9.76,21.29,19.68,31.93,29.52,2.75,2.54,2.79,2.51,5.76.28,12.07-9,23.51-18.85,34.65-29,7.23-6.59,14.33-13.32,21.22-20.25,9.41-9.46,18.39-19.34,27.07-29.48a430.9,430.9,0,0,0,34.26-45.44A344.6,344.6,0,0,0,1192,77.11c2.43-5.38,1.71-5.39,7.34-2.5q18.59,9.52,37.14,19.09c.72.37,1.44.72,2.15,1.1,3.15,1.68,3.2,1.74,1.89,5a327.37,327.37,0,0,1-16.49,35.31,393.36,393.36,0,0,1-41.13,61.23,468.59,468.59,0,0,1-44.47,47.16,498.88,498.88,0,0,1-49.12,40.19c-2.48,1.77-2.51,2.05-.29,4.12Q1104,301.7,1119,315.5q12,11.13,24.08,22.24c12.19,11.23,24.1,22.76,36.88,33.31,11.57,9.56,24,17.77,37.91,23.71,8.79,3.75,17.91,4.9,27.32,4.57,3.74-.13,4.2-.85,4.2,4q0,27.27,0,54.54v.69c-.06,3.7-.42,4-4.13,4.42-12.93,1.63-25.43-.42-37.73-4.32-14-4.42-26.53-11.57-38.37-20.08a333.57,333.57,0,0,1-34.45-28.68q-25-23.6-49.93-47.16L1046.84,327Q1028.92,310,1011,293.09C1010.55,292.7,1010.11,292.35,1009.4,291.75Z"/><path class="cls-1" d="M603.26,272.73a356.66,356.66,0,0,1,1.55-39.63c2.45-26.34,7.09-52.22,17.82-76.62,11.64-26.51,29-48.17,54.33-62.92a162,162,0,0,1,47.57-18,244.73,244.73,0,0,1,37.56-5c16.35-1,32.63-.29,48.95.62a353.12,353.12,0,0,1,48.51,6.39c8.47,1.67,16.82,3.85,25.09,6.29,3.4,1,3.57,1.22,2.76,4.56Q882.23,109.69,877,131c-.9,3.66-1.18,3.82-5.05,2.83A333.72,333.72,0,0,0,822.37,125a314.28,314.28,0,0,0-53-1.14,144,144,0,0,0-37.16,7.1c-21,7.23-36.57,20.77-47,40.31-8,14.88-12.57,30.81-15.17,47.41-3.46,22-4,44.19-3.47,66.41.43,18.09,2.27,36,7,53.57,3.83,14.24,9.54,27.63,18.85,39.23,7.86,9.78,17.86,16.86,29.09,22.24,11.78,5.63,24.4,8.1,37.27,9.49a213.39,213.39,0,0,0,28.93,1.26c31.48-.84,62.62-4.24,93.12-12.5,4.58-1.24,4.6-1.19,5.65,3.47q4.61,20.36,9.18,40.73c.05.22.1.44.14.67.6,3,.5,3.35-2.46,4.18-6.31,1.77-12.64,3.5-19,5.11a326.81,326.81,0,0,1-40.69,7.49c-9,1.09-18,1.94-27.13,2.47-13.67.79-27.35,1.42-41,1.07-21.33-.55-42.5-2.65-63-8.86-32.12-9.7-57-28.73-73.78-58-10-17.47-16-36.35-19.77-56A341.8,341.8,0,0,1,603.9,300C603.28,290.89,603.46,281.81,603.26,272.73Z"/><path class="cls-1" d="M559.49,660.77v4.6c0,9.21,0,18.41,0,27.61,0,3.27-.31,3.54-3.56,3.59-2.64,0-5.29.07-7.93,0-2.21-.09-2.5-.47-2.67-2.71-.06-.8,0-1.61,0-2.41V617.23c0-5.09,0-5.1,5.23-5.11,1.73,0,3.45,0,5.18,0,3.45.09,3.73.37,3.8,3.76,0,.81,0,1.61,0,2.42,0,6.9.11,13.8,0,20.7-.07,2.8.69,4.88,3,6.46a27.06,27.06,0,0,1,2.81,2.55c2.3,2.1,2.38,2.13,4.88.12,1.88-1.51,3.73-3.08,5.5-4.72,9-8.35,16.93-17.52,22.36-28.66,1.56-3.19,1.69-3.17,5-1.57,1.35.65,2.68,1.32,4,2,3.63,1.87,3.69,1.93,2,5.78a81.27,81.27,0,0,1-11.06,17.84A107.86,107.86,0,0,1,579.07,657c-2.28,1.73-2.29,1.8-.14,3.79q8.1,7.5,16.26,14.93a36.39,36.39,0,0,0,6.08,4.53c2.49,1.47,5,2.81,8,2.89,1.81,0,2.76.83,2.73,2.74,0,3.1.06,6.21,0,9.31-.07,2.09-.61,2.57-2.79,2.66a21.46,21.46,0,0,1-11.19-3,54,54,0,0,1-11.25-8.52q-12.29-11.59-24.58-23.21C561.52,662.49,560.82,661.92,559.49,660.77Z"/><path class="cls-1" d="M56.68,654.14V618.27c0-.92,0-1.84,0-2.76.15-3,.57-3.38,3.43-3.57q15.83-1,31.7-.68a51.79,51.79,0,0,1,14.92,2.41c7.72,2.47,12.29,7.7,13.82,15.67a50.9,50.9,0,0,1-.88,24.22c-2,7-6.68,11.61-13.54,14.06A46.44,46.44,0,0,1,91.58,670,149.29,149.29,0,0,1,74,669.81c-2.39-.22-2.75.11-2.79,2.7-.07,5.29,0,10.58,0,15.87,0,1.84.06,3.68-.07,5.51-.15,2.2-.54,2.59-2.75,2.66-3,.09-6,0-9,0-1.7,0-2.59-.75-2.66-2.44,0-1-.07-2.06-.07-3.1Q56.67,672.59,56.68,654.14ZM71.19,640.7c0,4.6,0,9.19,0,13.79,0,3.37.26,3.65,3.45,3.69q7.92.09,15.85,0a23.8,23.8,0,0,0,8.09-1.54,11.46,11.46,0,0,0,7.52-8.34,37.59,37.59,0,0,0,.53-14.71,10.77,10.77,0,0,0-7.06-9.05,28.09,28.09,0,0,0-5-1.32c-6.65-1.21-13.29-.3-19.94,0-3.15.13-3.42.41-3.45,3.73C71.16,631.51,71.2,636.1,71.19,640.7Z"/><path class="cls-1" d="M351.41,636.17c1.43,0,2.52-1,3.71-1.57a35,35,0,0,1,17.59-4.15,18.3,18.3,0,0,1,14.88,8.07,29.44,29.44,0,0,1,4.75,11.39,64.51,64.51,0,0,1,0,26,32.59,32.59,0,0,1-3.94,10.26,22.44,22.44,0,0,1-13.77,10.26,43.68,43.68,0,0,1-17.78.94c-6-.8-5.11-.76-5.16,4.32,0,5.4,0,10.81,0,16.22,0,3.6-.3,3.86-4,3.91-2.41,0-4.83,0-7.25,0a2.36,2.36,0,0,1-2.61-2.55c0-1-.06-2.07-.06-3.1q0-39.52,0-79c0-5.91,0-5.91,5.89-5.91h.69C349.86,631.22,349.86,631.22,351.41,636.17Zm.25,29.88c0,5.62,0,11.25,0,16.87,0,2.84.26,3,3,3.67a34.08,34.08,0,0,0,8.89.72c8.28-.17,12.71-3.74,14.55-11.87,1.49-6.57,1.23-13.23.54-19.87a20.56,20.56,0,0,0-1.74-6.28c-2.5-5.56-7-8.1-13-7.18a32.48,32.48,0,0,0-9.12,3,4.88,4.88,0,0,0-3.17,5.09C351.78,655.49,351.66,660.77,351.66,666.05Z"/><path class="cls-1" d="M1137.75,668.88c-.87,1.27-.5,2.57-.51,3.78,0,6.67,0,13.34,0,20,0,3.6-.35,3.88-4,3.91-2.3,0-4.6,0-6.9,0a2.09,2.09,0,0,1-2.37-2.31c0-.92,0-1.84,0-2.76q0-39.33,0-78.66c0-5.13,0-5.13,5.13-5.14,1.84,0,3.68,0,5.52,0a2.28,2.28,0,0,1,2.61,2.49c0,1,.06,2.07.06,3.11,0,10.35.13,20.7-.07,31-.07,3.61.8,6.34,3.57,8.79,3.82,3.39,3.68,3.57,7.29,0,5.82-5.82,10.94-12.14,13.72-20a3.27,3.27,0,0,1,3.93-2.43c2.62.26,5.27.41,7.89.72,2.35.27,2.72.86,1.9,3.25-2,5.73-5.22,10.73-8.88,15.49a121.46,121.46,0,0,1-12,12.85c-1.93,1.88-1.93,2-.11,3.81a143.59,143.59,0,0,0,14,12.82c2.37,1.86,4.87,3.49,8,3.64,1.78.08,2.32,1.18,2.32,2.77,0,3,.1,6,0,9,0,2.08-.57,2.63-2.69,2.79a15.28,15.28,0,0,1-10.38-3,115,115,0,0,1-11.85-10.53c-4.81-4.62-9.47-9.39-14.21-14.09A3.37,3.37,0,0,0,1137.75,668.88Z"/><path class="cls-1" d="M1278.8,630.59a35.47,35.47,0,0,1,11.59,1.2,21.61,21.61,0,0,1,15.35,14.52c2.14,6.17,2.52,12.61,2.43,19A57.9,57.9,0,0,1,1307,677c-2.94,13.2-10.72,20-24.25,20.78a53,53,0,0,1-12.7-.59c-9.16-1.65-15.48-6.62-18.5-15.54-2.64-7.76-2.87-15.77-2.27-23.84a60.36,60.36,0,0,1,1-6.81c2.32-12.29,10.48-19.51,23-20.38C1275.11,630.48,1277,630.59,1278.8,630.59Zm15.07,34.58a71.42,71.42,0,0,0-.74-12c-1.44-8-5.52-11.65-13.6-11.87a29.3,29.3,0,0,0-3.11,0c-6.63.48-10.51,3.87-12.08,10.34a60.14,60.14,0,0,0-1.07,9.24,51,51,0,0,0,1.39,16.43c1.07,4.42,3.68,7.66,8.21,9a20.65,20.65,0,0,0,6.82.85c7.14-.38,11-3.43,12.84-10.35A41,41,0,0,0,1293.87,665.17Z"/><path class="cls-1" d="M1406.71,663.58a65.63,65.63,0,0,1-.79,12.12c-2.22,12.93-8.9,19.7-21.83,21.73a45.13,45.13,0,0,1-16.78-.53c-9.33-2-15.08-7.87-17.65-16.94a61.15,61.15,0,0,1-1.68-22.21,52.59,52.59,0,0,1,1.19-8.17c2.56-10.31,8.92-16.72,19.45-18.48a46.82,46.82,0,0,1,20.49.73c8.25,2.31,13.38,7.71,15.75,15.84A50.58,50.58,0,0,1,1406.71,663.58Zm-14.18.31a49.76,49.76,0,0,0-1.16-12.64c-1.27-5.74-4.84-9-10.59-9.77a23.12,23.12,0,0,0-7.87.14c-5.14,1-8.3,4.09-9.69,9.12a49,49,0,0,0-1.2,8.5,53.46,53.46,0,0,0,1.25,17.78c1,4.08,3.11,7.44,7.3,8.93a20.64,20.64,0,0,0,9.49,1c6-.72,9.53-4.08,11.07-9.79A44.83,44.83,0,0,0,1392.53,663.89Z"/><path class="cls-1" d="M484.82,690.34c-1.24.29-2.13,1.24-3.18,1.9a34,34,0,0,1-19.24,5.63c-9.89-.25-16.31-6.66-16.51-16.59,0-1,0-2.08,0-3.11.36-6,3.08-10.48,8.42-13.32a40.75,40.75,0,0,1,12.09-3.9c4.86-.89,9.76-1.49,14.68-2,2.51-.28,2.6-.39,2.7-3,0-1,0-2.07,0-3.11-.11-6.26-3.35-9.76-9.69-10.21a57.14,57.14,0,0,0-16.8,1.13l-1.68.38c-3.62.81-3.76.74-4.59-2.94-.35-1.57-.62-3.16-1-4.73-.39-1.77.19-2.79,2-3.3a70.74,70.74,0,0,1,11.49-2.26,57.2,57.2,0,0,1,16.83.23c11.6,2.19,17.31,9,17.43,20.84.09,8.73,0,17.47,0,26.21,0,1.15,0,2.3.07,3.45.26,3.15,1.19,4.14,4.32,3.95,1.86-.11,2.52.54,2.67,2.21.12,1.26.4,2.5.54,3.76.39,3.65-.05,4.28-3.61,5.48a17.53,17.53,0,0,1-7.15.8c-3.81-.33-6.79-2-8.56-5.51C485.82,691.61,485.72,690.73,484.82,690.34Zm-1-15.66h0c0-1.5.05-3,0-4.49-.11-2.46-.45-2.89-2.86-2.76a45,45,0,0,0-14.5,2.79c-4.9,2-6.74,4.86-6.48,10.14.24,4.73,2.92,7.32,7.68,7.53,4.45.19,8.3-1.53,12.06-3.62,2.83-1.57,4.71-3.64,4.14-7.18A14.9,14.9,0,0,1,483.83,674.68Z"/><path class="cls-1" d="M733.55,664.16q0,6.9,0,13.8a19.52,19.52,0,0,0,.41,4.45c.61,2.58,1.35,3.35,4,3.13,2-.16,2.75.61,2.94,2.39.18,1.6.33,3.2.61,4.79a3.05,3.05,0,0,1-2.21,3.74,18.33,18.33,0,0,1-10.14,1.13,9.31,9.31,0,0,1-6.81-4.78c-1.51-2.73-1.63-2.77-4.32-.94a34.18,34.18,0,0,1-14.31,5.66,25.35,25.35,0,0,1-9.93-.27A14.49,14.49,0,0,1,682.76,687a22.27,22.27,0,0,1-.22-12.91,14,14,0,0,1,6.83-8.73A41.18,41.18,0,0,1,702,661c4.74-.94,9.53-1.5,14.33-2,2.88-.32,3-.47,3.12-3.38,0-1.5,0-3,0-4.49,0-4-2.19-6.37-5.74-7.75a14.39,14.39,0,0,0-4.73-.82,62.91,62.91,0,0,0-17.46,1.6c-3.54.88-3.85.63-4.61-3-.33-1.57-.55-3.17-.93-4.73-.45-1.88.37-2.75,2.09-3.26a59.1,59.1,0,0,1,11.83-2.32c7-.6,14-1,20.82,1.43,8,2.84,12.55,8.9,12.75,17.39.12,4.83,0,9.66,0,14.5Zm-14,10.5h0c0-1.38,0-2.76,0-4.13-.12-2.78-.53-3.26-3.31-3.06a45.3,45.3,0,0,0-13.46,2.64c-5.33,2.1-7.07,4.83-6.7,10.61.29,4.66,2.77,7,7.5,7.16,4,.1,7.64-1.24,11.18-3,3.38-1.71,5.51-4,4.83-8.13A11.91,11.91,0,0,1,719.5,674.66Z"/><path class="cls-1" d="M902.57,665.46c0,5.06-.07,10.12,0,15.18.07,3.92.91,4.73,4.93,4.87a1.8,1.8,0,0,1,2,1.8c.18,1.25.44,2.49.58,3.75.49,4.45.19,4.86-4,6.09a18.71,18.71,0,0,1-6.48.68,9.83,9.83,0,0,1-8.47-5.1c-1.52-2.62-1.61-2.64-4.08-1-6.12,4-12.72,6.35-20.13,6.15-8.75-.25-14.65-5.06-16.06-13.68-1.75-10.7,2.24-17.49,11.74-21,5.55-2,11.38-2.77,17.19-3.58,2.16-.3,4.33-.53,6.51-.72,1.39-.12,2.11-.77,2.1-2.18,0-2.07.12-4.16-.09-6.21a7.94,7.94,0,0,0-5.09-6.83,15.28,15.28,0,0,0-5.71-1.16,64.53,64.53,0,0,0-17.46,1.65c-3.33.8-3.46.69-4.2-2.55-.31-1.35-.58-2.7-.84-4.06-.67-3.45-.46-3.92,3.08-4.74a84,84,0,0,1,10.5-2,57,57,0,0,1,16.85.34c11.12,2.18,16.91,9.09,17,20.47.06,4.6,0,9.21,0,13.81Zm-14.09,9.09h0c0-1.38,0-2.76,0-4.14-.1-2.7-.43-3.11-3-3a47.64,47.64,0,0,0-13.18,2.37,14.89,14.89,0,0,0-4.56,2.4c-3,2.42-4.06,6.95-2.55,11,1.2,3.23,3.75,4.7,8,4.67a22.73,22.73,0,0,0,10.17-2.95c3.53-1.8,6-4.25,5.16-8.67A9,9,0,0,1,888.48,674.55Z"/><path class="cls-1" d="M252,655.53c0,4.37-.08,8.75,1,13,.92,3.71,2.16,7.28,4.7,10.25,3.14,3.68,7.24,5.51,11.93,6.31,8,1.35,15.8.19,23.65-1,.9-.14,1.8-.36,2.7-.54,3.45-.69,3.75-.51,4.51,2.75.37,1.56.73,3.13,1,4.71.53,2.71.27,3.18-2.4,4a75.21,75.21,0,0,1-16.64,2.73c-6.76.38-13.54.46-20.25-1-11.58-2.49-18.75-9.63-22.35-20.68a48.16,48.16,0,0,1-2.22-11.49c-.65-9.31-.56-18.61,1.74-27.75,3.62-14.36,12.78-22.77,27.46-24.91a76.58,76.58,0,0,1,30.1,1.66c3.14.79,3.36,1.2,2.68,4.32-.38,1.8-.81,3.59-1.31,5.36-.67,2.37-1,2.64-3.43,2.13a126.11,126.11,0,0,0-13-1.78,43.82,43.82,0,0,0-14,1.05c-6.21,1.38-10.33,5.3-12.88,11s-3,11.52-3,17.53Z"/><path class="cls-1" d="M1087,697.89a39.47,39.47,0,0,1-8.91-.79c-9.37-2-15.81-7.39-18.63-16.51a50.74,50.74,0,0,1,.38-31.56c3.57-10.77,11.35-16.79,22.5-18.26a40.85,40.85,0,0,1,14.41.44c8.34,1.88,13.47,7,15.7,15.21a47.82,47.82,0,0,1,1.4,15.39c-.14,2.54-.46,3-3,3.27-3.3.41-6.63.69-10,.88-7.69.43-15.38.94-23.09.94-6.29,0-6.63.44-5.75,6.91,1.08,8,6,12.21,14.31,12.68a76.23,76.23,0,0,0,20.2-1.84c5-1.06,5.14-1.06,5.83,4s2.34,5.15-4.49,6.88A84.64,84.64,0,0,1,1087,697.89Zm-8.48-40.39c5-.25,10.13-.52,15.29-.74,6.27-.27,6.94-1.19,5.39-7.29-1.14-4.52-3.64-7.53-8.46-8.34-9-1.51-15.9,2.58-18,11.67-1.08,4.55-1,4.71,3.58,4.7Z"/><path class="cls-1" d="M670.74,657.59c0,6.9,0,13.8,0,20.7a22.53,22.53,0,0,0,.24,3.77c.51,2.94,1.33,3.74,4.36,3.68,1.92,0,2.75.61,2.89,2.46.08,1.15.36,2.27.51,3.41.49,3.64,0,4.35-3.6,5.37a19.6,19.6,0,0,1-6.81.86c-3.25-.24-6.1-1.34-8-4.12-1.69-2.48-2.29-1.89-4.23-.91a43.94,43.94,0,0,1-14,4.75,27.49,27.49,0,0,1-12.29-.74,14.73,14.73,0,0,1-10-10.09,26.86,26.86,0,0,1-1.18-8.16V636.15c0-.69,0-1.38.05-2.07a2.35,2.35,0,0,1,2.56-2.6q4.31,0,8.62,0c1.84,0,2.69,1,2.67,2.84,0,1,0,2.07,0,3.11,0,12.53.14,25.06-.06,37.59-.11,7.37,2.82,11.61,11.67,10.94a32.54,32.54,0,0,0,10.85-3.17,3.38,3.38,0,0,0,2.1-3.56c-.06-4.14,0-8.28,0-12.42q0-15.69,0-31.39c0-3.66.29-3.92,3.9-4,1.83,0,3.67,0,5.51,0,3.9.06,4.15.28,4.16,4.1C670.75,642.88,670.74,650.24,670.74,657.59Z"/><path class="cls-1" d="M1186,664c0-9.54,0-19.09,0-28.63,0-3.64.3-3.9,3.92-4,1.84,0,3.69-.06,5.52,0,2.45.11,2.64.33,3.16,2.71s.49,2.24,2.61,1.33c2.32-1,4.62-2.06,7-3a34.12,34.12,0,0,1,17-1.78,15.81,15.81,0,0,1,13.61,13.64,52.92,52.92,0,0,1,.54,7.22c0,13.33,0,26.67,0,40V692c0,4.49-.18,4.62-4.68,4.63-2.3,0-4.6,0-6.89,0a2.09,2.09,0,0,1-2.37-2.31c0-1,0-2.07,0-3.1q0-18.28,0-36.57a23.55,23.55,0,0,0-.69-6.15,7.38,7.38,0,0,0-5.83-5.72c-6.42-1.34-12.26.68-17.94,3.39a2.33,2.33,0,0,0-1.31,2.26c0,1.15,0,2.3,0,3.45v39.32c0,.92,0,1.85,0,2.76-.17,2.21-.48,2.59-2.71,2.67-2.64.1-5.29.1-7.93,0-2.45-.08-2.81-.42-2.87-2.85-.09-3.91,0-7.82,0-11.73Z"/><path class="cls-1" d="M1035.91,660.87v30.36c0,.92,0,1.84,0,2.76,0,1.69-.74,2.57-2.48,2.57-3,0-6,.08-9,0-2.14-.07-2.48-.51-2.64-2.76-.07-1,0-2.07,0-3.11q0-30.36,0-60.72c0-4.75,0-4.76-4.81-4.77-5.52,0-11.05,0-16.57,0-3.57,0-3.94-.44-4-4,0-2.18,0-4.37.06-6.55a2.23,2.23,0,0,1,2.36-2.41c.92-.05,1.84-.08,2.76-.08h54.52c.46,0,.92,0,1.38,0,3.38.12,3.8.51,3.88,3.78q.08,2.76,0,5.52c-.08,3.17-.48,3.62-3.58,3.72-2.76.08-5.52,0-8.28,0-3.34,0-6.67,0-10,0s-3.52.29-3.53,3.59C1035.9,639.47,1035.92,650.17,1035.91,660.87Z"/><path class="cls-1" d="M164.56,660.82v30c0,.92,0,1.84,0,2.76-.14,2.5-.43,2.87-2.8,2.95-2.87.09-5.75.09-8.62,0-2.2-.07-2.53-.47-2.69-2.69-.08-1,0-2.07,0-3.11V631c0-.81,0-1.61,0-2.42-.09-3.08-.32-3.39-3.36-3.42-5.41-.06-10.82,0-16.22,0-1,0-2.07,0-3.11,0-1.84,0-2.7-1-2.7-2.84,0-2.42-.08-4.84,0-7.25s.6-2.67,3-2.87c.8-.07,1.61,0,2.42,0h55.22c4,.08,4.27.39,4.32,4.39,0,1.73.05,3.45,0,5.18-.11,2.89-.55,3.4-3.49,3.45-5.4.08-10.81.05-16.22,0-6.23,0-5.67,0-5.68,5.62Q164.55,645.8,164.56,660.82Z"/><path class="cls-1" d="M941.1,630.47a52.55,52.55,0,0,1,14,1.75c4.35,1.07,4.47,1.29,3.71,5.61-.18,1-.3,2.06-.52,3.07-.63,2.86-.92,3.14-3.7,2.42a74.83,74.83,0,0,0-12.26-1.84,23.55,23.55,0,0,0-8.87,1,6,6,0,0,0-4.76,5.64,6.18,6.18,0,0,0,3.72,6.73,49.67,49.67,0,0,0,9.81,3.23,60.64,60.64,0,0,1,10.13,3.41c7.35,3.27,10.86,9,10.69,16.94s-4.09,13.7-11.52,16.88a31.68,31.68,0,0,1-10.38,2.42,67.6,67.6,0,0,1-24.57-2.6c-2.92-.89-3.06-1.14-2.63-4.16.21-1.48.45-3,.76-4.42.53-2.53.79-2.77,3.21-2.1a82,82,0,0,0,14.25,2.52,31.83,31.83,0,0,0,10.3-.41,10.55,10.55,0,0,0,4.07-1.78,6.79,6.79,0,0,0,.89-10,12.71,12.71,0,0,0-4.95-3.05,78.58,78.58,0,0,0-9.24-2.79A39.54,39.54,0,0,1,923,664.79c-11.57-6.59-10.27-25.19,1-31.09C928.35,631.42,932.84,630.45,941.1,630.47Z"/><path class="cls-1" d="M825.91,661.45c0,4.72,0,9.44,0,14.15a16.35,16.35,0,0,0,.42,4.46c1,3.67,3,5.42,6.82,5.77a31,31,0,0,0,9.91-.92c2.56-.59,3-.25,3.52,2.32.31,1.46.56,2.94.79,4.42.47,3.08.35,3.45-2.54,4.19-6.49,1.67-13,2.84-19.77,1.44-6.27-1.3-10.1-5.19-11.83-11.23A36.72,36.72,0,0,1,812,675.82q0-14.33,0-28.65c0-.92,0-1.84,0-2.76,0-1.77-.9-2.46-2.59-2.43s-3.45,0-5.17,0-2.59-.75-2.6-2.47l0-.69c-.35-6-.06-6.37,6-6.81,4.31-.3,4.61-.61,5-4.85q.33-3.6.79-7.2c.32-2.54.76-3,3.23-3.08,2.18-.09,4.37-.1,6.55,0s2.62.57,2.71,2.73c.11,2.76,0,5.52.06,8.28.06,3.2.34,3.49,3.64,3.52,4.14.05,8.28,0,12.42,0,3.33.05,3.76.48,3.82,3.84.14,8-.2,6.61-6.38,6.7-3.45,0-6.91,0-10.36,0-2.85,0-3.11.3-3.13,3.24C825.87,650.64,825.91,656,825.91,661.45Z"/><path class="cls-1" d="M407.28,662c0-5.29,0-10.58,0-15.87,0-4.13,0-4.13-4.3-4.16-1.15,0-2.3,0-3.45,0-.56,0-1.32,0-1.64-.35-1.9-2-.76-4.57-.92-6.89-.1-1.4.85-2.07,2.14-2.23,1.71-.21,3.42-.36,5.14-.56,2.44-.28,3-.67,3.4-3.09.45-2.84.66-5.71,1-8.56s.75-3.32,3.64-3.42c1.72-.06,3.45-.05,5.17,0,3.27.08,3.66.48,3.74,3.91.06,2.41,0,4.83,0,7.24.07,3,.44,3.36,3.43,3.41,3.8.06,7.59,0,11.39,0,4.6,0,4.7.14,4.72,4.58,0,1,0,2.08,0,3.11-.15,2.43-.43,2.77-2.89,2.84-3.45.09-6.91,0-10.36,0-.92,0-1.84,0-2.76,0-3.26.07-3.5.26-3.51,3.6q0,15.34,0,30.71a18.68,18.68,0,0,0,.28,3.43,7,7,0,0,0,6.57,6.07A30.44,30.44,0,0,0,438,685c3-.63,3.32-.34,3.92,2.62.16.79.24,1.6.38,2.39,1,5.15,1,5.18-4.22,6.38a52.43,52.43,0,0,1-13.68,1.49c-9.16-.31-15.1-5.5-16.51-14.5a25.35,25.35,0,0,1-.51-3.76c-.06-5.86,0-11.73,0-17.6Z"/><path class="cls-1" d="M1318.1,645.57V613.48c0-.92,0-1.85,0-2.76.18-2.59.52-3,3.13-3s5.07-.07,7.6,0c2.74.08,3,.44,3.17,3.31,0,1,0,2.07,0,3.11q0,30.89,0,61.78a20.28,20.28,0,0,0,.39,5.49c.8,2.91,2.39,4.21,5.42,4.37a17.64,17.64,0,0,0,3.76-.38c2-.32,2.44,0,2.81,2s.52,3.87.75,5.81a2.66,2.66,0,0,1-2,3.18c-5.51,1.72-11,2.34-16.58.21-4-1.52-6.15-4.7-7.23-8.66A41,41,0,0,1,1318.1,677Q1318.09,661.28,1318.1,645.57Z"/><path class="cls-1" d="M747.77,645.57q0-16.05,0-32.1c0-1,0-2.07.05-3.1.21-2.19.56-2.58,2.77-2.65,2.75-.09,5.52-.09,8.28,0,2.21.07,2.57.47,2.76,2.65.1,1.14.05,2.3.05,3.45q0,30.72,0,61.43a25.94,25.94,0,0,0,.32,5.84c.76,3.33,2.4,4.67,5.84,4.65a22.73,22.73,0,0,0,3.75-.46A1.86,1.86,0,0,1,774,687c.31,2.05.56,4.1.81,6.15a2.62,2.62,0,0,1-2,3.14,26.44,26.44,0,0,1-14.61.9c-4.85-1.2-7.7-4.41-9.12-9A34.53,34.53,0,0,1,747.78,678Q747.77,661.78,747.77,645.57Z"/><path class="cls-1" d="M794.88,663.92v27.22c0,.92,0,1.85,0,2.76-.2,2.18-.53,2.58-2.76,2.65-2.87.09-5.74,0-8.61,0A2.16,2.16,0,0,1,781,694.3c-.06-.92-.08-1.84-.08-2.76q0-27.39,0-54.79c0-.35,0-.69,0-1,.07-3.93.38-4.24,4.4-4.29,1.73,0,3.45,0,5.17,0,4.12.05,4.35.25,4.36,4.25,0,7.24,0,14.47,0,21.71Z"/><path class="cls-1" d="M325.26,664v26.88c0,.92,0,1.84,0,2.75-.19,2.4-.55,2.82-2.9,2.89-2.75.08-5.51.09-8.27,0-2.17-.07-2.52-.49-2.7-2.69-.08-.92,0-1.84,0-2.76V636.64c0-.69,0-1.38,0-2.07.14-2.6.48-3,3-3.12,2.76-.09,5.52,0,8.27,0a2.35,2.35,0,0,1,2.58,2.58c0,1,.05,2.06.06,3.1Z"/><path class="cls-1" d="M1481.63,663.87V637c0-.92,0-1.84,0-2.76,0-1.64.76-2.66,2.45-2.68,3-.06,6,0,9,0a2.22,2.22,0,0,1,2.39,2.37c0,.92.07,1.84.08,2.76q0,27.43,0,54.87c0,5.08,0,5.08-5.25,5.09-2.07,0-4.14,0-6.21,0a2.14,2.14,0,0,1-2.39-2.32c0-1-.07-2.07-.07-3.1Z"/><path class="cls-1" d="M318.17,621.28h-1c-5.57-.22-8.42-4.3-6.76-9.64,1.07-3.44,3.76-4.82,8.94-4.58,4.11.2,6.24,1.84,6.92,5.33C327.37,618.15,324.5,621.31,318.17,621.28Z"/><path class="cls-1" d="M787.37,621.29c.25,0-.09,0-.44,0-5.92-.24-8.94-5.14-6.51-10.59a3,3,0,0,1,.15-.31c1.75-3.39,8.81-4.61,12.67-2.2,3.18,2,4,7.55,1.56,10.73C793.05,621.18,790.53,621.32,787.37,621.29Z"/><path class="cls-1" d="M1488.49,621.26c-.46,0-.92,0-1.38,0-4.51-.3-6.73-2.58-6.78-7s2.42-6.95,7-7.22a21.53,21.53,0,0,1,2.41,0c4.76.23,7.2,2.76,7.14,7.39-.06,4.32-2.56,6.65-7.31,6.83h-1Z"/><path class="cls-1" d="M186.28,689.74c0-5.43,2.35-7.86,7.7-7.85,5,0,7.66,2.75,7.61,7.7-.05,5.17-2.49,7.57-7.67,7.57C188.52,697.16,186.31,695,186.28,689.74Z"/></g></g></svg>