<svg xmlns="http://www.w3.org/2000/svg" viewBox="0 0 284.87 400"><defs><style>.cls-1{fill:#ff3b3b;}</style></defs><g id="Layer_2" data-name="Layer 2"><g id="Layer_1-2" data-name="Layer 1"><path class="cls-1" d="M97.28,154.29c-12.62,0-26.63.61-27.81,17.93-1.14,16.94,11.18,19.41,24.62,21.44,49,7.44,76.38,37.08,83.35,85.52,2.06,14.25,6.07,24.84,22.48,23.29,15.17-1.44,15.37-14.32,17.17-24.32h0C218.82,217.71,157.26,154.44,97.28,154.29ZM198.19,286.82h0C184.94,223,150,183.85,77.08,178.72h0c28.73-15.5,56.13-9.23,84.46,14.42C190.73,217.5,202.75,248.89,198.19,286.82Z"/><path class="cls-1" d="M96.65,209.05c-12.81-1.19-23.29,1.84-26.53,14.88s3.29,21.77,17,24.08c22,3.71,33.21,17.3,36.45,38.84,1.87,12.37,10.59,17.37,22,15.84,14.63-2,16-13.67,16.3-22.55C160.49,244.2,129.43,212.11,96.65,209.05Zm46.29,79.52h0c-10.38-29.42-26.82-51.44-65.46-56.22h0C120.27,217.48,149.13,244.74,142.94,288.57Z"/><path class="cls-1" d="M88.06,266c-12.2-.13-19.16,6.4-18.92,18.38.23,11.83,7.51,18.37,19.41,18.41,12.14,0,17.71-7.63,19.85-18.65h0C106.37,272.71,99.93,266.13,88.06,266Z"/><path class="cls-1" d="M284.67,200.71q0-14-.06-28.08.13-64,.26-128.11c0-1.26-.05-2.46-.1-3.67,0-.21,0-.43,0-.64C283.55,13.94,270.58-.22,241.41,0c-7.08.06-14.16.07-21.24.11Q181.31.2,142.44.27T64.7.11C57.62.07,50.54.06,43.47,0,14.29-.22,1.32,13.94.12,40.21c0,.21,0,.43,0,.64,0,1.21-.1,2.41-.1,3.67q.12,64.07.27,128.11,0,14-.06,28.08c0,52.67.27,105.35-.12,158C-.11,385.17,11,400,38.48,400h1c.37,0,.71,0,1.09,0q50.91-.21,101.83-.12t101.82.12c.38,0,.73,0,1.1,0h1c27.47,0,38.59-14.8,38.4-41.23C284.4,306.06,284.67,253.38,284.67,200.71Zm-50.83,184c-36.09-.77-72.2-.68-108.31-.4-24.87-.07-49.73.05-74.58.58-17.38.36-27.43-4-32.87-12.84-3.25-5.59-4.74-13.26-4.36-23.53,1.85-50,.53-100.08.53-150.14h-.14c0-48.91.92-97.85-.36-146.73,0-36,2.92-37.09,57.64-37.09,50.74,0,128.06-.18,140.36-.18,16.28,0,28.15.1,36.85,1,21.13,2.37,22.65,10.21,22.65,36.12-1.29,48.93-.36,97.91-.36,146.87h-.14c0,50.1-1.33,100.25.52,150.28a60.35,60.35,0,0,1-1,14.23C266.5,377.71,256.31,385.2,233.84,384.73Z"/><path class="cls-1" d="M258.43,309.51c-.31-7.63-.53-15.26-.75-22.89.05-68.19-.41-136.39.34-204.58l.27-16.18a62.41,62.41,0,0,0-.35-6.58c-2.37-31.94-23.93-29-50.35-28.89-1.11,0-2.16-.06-3.33-.06l-61.82,0-61.83,0c-1.17,0-2.21.05-3.33.06-26.42-.14-48-3.05-50.34,28.89a62.34,62.34,0,0,0-.36,6.58L26.85,82c.75,68.19.29,136.4.35,204.6-.23,7.63-.45,15.26-.76,22.89-.49,12.16,1.26,21.07,5.62,27.18a15.65,15.65,0,0,0,8.22,6.93c5.28,2.63,12.12,3.81,20.78,3.64,11-.22,21.91-.3,32.87-.35V333.5c-5.63.17-11.25.41-16.87.75-12,.73-20.67-.46-26.79-4.08-12.28-9.54-9.68-27.46-9.53-44.51.61-69.85,1.12-139.73-.31-209.57C39.93,51.9,43.74,42.5,71,42.15h.63c21.51.78,46.85.83,70.77.66,23.91.17,49.25.12,70.77-.66h.63c27.29.35,31.1,9.75,30.61,33.94-1.44,69.84-.93,139.72-.32,209.57.15,17,2.75,35-9.53,44.51-6.12,3.62-14.81,4.81-26.79,4.08-21.73-1.31-43.55-1.21-65.37-.93q-14.26-.18-28.51-.14V347l28.51-.09q20.67.09,41.34.12h0v-.17c13.35,0,26.69.13,40,.39,8.66.17,15.5-1,20.78-3.64a15.65,15.65,0,0,0,8.22-6.93C257.17,330.58,258.92,321.67,258.43,309.51Z"/><path class="cls-1" d="M116.44,358.4a6,6,0,0,0,0,12h34v-12Z"/><path class="cls-1" d="M168.44,370.4a6,6,0,0,0,0-12h-34v12Z"/></g></g></svg>