<svg xmlns="http://www.w3.org/2000/svg" viewBox="0 0 401.32 400"><defs><style>.cls-1{fill:#ff3b3b;}</style></defs><g id="Layer_2" data-name="Layer 2"><g id="Layer_1-2" data-name="Layer 1"><path class="cls-1" d="M307.91,284.25c12.7-9.36,23.5-5.9,33.53-6.09,43.83-.84,47.68-4.6,47.7-49.64,0-47.18-2.55-49.84-50.36-49.87q-135.28-.1-270.58,0c-54.61,0-54.61-.1-56.46,55.27-.23,6.93,1.68,14.32-5.92,22.21C-2.56,234.82,0,213.91,1.94,193.91c2.08-21.46,18.7-29,38.39-29q160.23-.3,320.45,0c27.17.1,40.91,14.06,40.53,42.38q-1,77.07-.06,154.16c.33,27.52-13.3,38.42-39.33,38.39-106.82-.16-213.64-.32-320.46.13-28.34.12-40.06-12-40.8-40.73-2.07-80.54-1.75-81.55,78.46-81.38,68.68.15,137.36,0,209.12,0-9.12,17.27-21.94,12.2-32.36,12.26-67.61.36-135.3,2.26-202.8-.44C10,288,13,314.37,11.66,342.67c-1.37,29.94,6,46.49,41.06,45.94q149.45-2.4,298.93.11c38.87.71,38.24-23,37.45-48.87-.75-24.2,4.6-53.24-36.14-49.58C339.38,291.48,324.89,293,307.91,284.25Z"/><path class="cls-1" d="M200.21.18c34.61-.81,63,9.29,86.63,31.21,9.84,9.12,18.88,20.08,6.6,33.44-10,10.9-20.44,7.58-31.16-.88-40.74-32.16-82-32.15-122.82-.08-10.76,8.45-21.6,11.38-31.46.69-12.13-13.17-3.38-24.27,6.69-33.34C139.57,8.8,169-1.52,200.21.18Zm-79.74,56.7c25.42-16.88,51.1-29,82-29.9S256,46.41,285.08,57.54C262.32-.5,138.91-1.11,120.47,56.88Z"/><path class="cls-1" d="M259.12,91.55c-3.27,18.9-15.17,24.91-30.25,15.32-19.51-12.42-36.49-13.69-55.46,0-8.27,6-18.94,5.28-26.09-2.63a18.48,18.48,0,0,1-1.49-23.28C159,61.66,179,54.21,201,54.52S243,62.21,256.37,81.28C258.25,84,258.22,88,259.12,91.55Zm-18.54,5.71C235.44,75.94,224.94,68.41,202.34,68c-24.09-.45-36.16,7.37-42.71,30.72C187.12,78.39,213.58,77.73,240.58,97.26Z"/><path class="cls-1" d="M123.28,233.45c.92,11.81-.8,27-20.63,26C80.92,258.4,82.12,240,82,224.8c-.08-14.88,3.13-31.23,21.73-30.25C125.29,195.69,122.81,214.58,123.28,233.45Z"/><path class="cls-1" d="M138.25,225.1c.31-15,2.5-31.16,21.3-30.62,21.9.62,19.74,19.61,20.11,34.83.37,15-1.35,31-20.91,30.38C136.66,259,139,240.37,138.25,225.1Z"/><path class="cls-1" d="M179.77,338.69c-1.29,13.65,1.79,32.32-21,32.13-19.56-.16-20.25-16.34-20.47-30.71-.23-15.59-.29-33,21.47-33.16C180.1,306.76,179.08,323.31,179.77,338.69Z"/><path class="cls-1" d="M123.18,340.22c0,16.43-.37,32.24-20.87,30.67C81,369.27,81.79,351.66,82,336.39c.23-14.8,3.29-30.19,22.33-29.23C127.29,308.31,121.82,327.58,123.18,340.22Z"/><path class="cls-1" d="M67.43,230.13c-.19,12,2.1,29-18.29,29.49C26,260.24,29,241.16,28.72,226.42c-.29-14-1.11-31.7,18.28-32.07C69.05,193.92,66.87,212.89,67.43,230.13Z"/><path class="cls-1" d="M67.46,339c-.32,16.36.61,32.7-20.44,31.79s-18.28-18.15-18.31-32S26.23,307.37,47.15,307C71.09,306.59,65.61,326.47,67.46,339Z"/><path class="cls-1" d="M219.37,128.52c-.71,11.23-4.77,19.48-16.09,20.79-12.72,1.47-20.79-5.41-21.85-17.7-1.13-13,7.47-19.68,19.54-20C212,111.26,217.73,118.63,219.37,128.52Z"/><path class="cls-1" d="M372.81,227.38c-1,14.88-8.54,21.2-20.81,20-10.31-1-17.1-7.77-17.26-18.63-.19-12.55,6.91-19.65,19.31-19.83C367.23,208.76,372.26,217.2,372.81,227.38Z"/><path class="cls-1" d="M297.73,248.11c-12-2.88-19.19-10.06-17.62-22.64,1.31-10.58,7.92-17.23,19.39-16.3,13.18,1.07,18.78,9.44,17.28,21.81C315.49,241.53,308.77,247.66,297.73,248.11Z"/><path class="cls-1" d="M372.61,337.7c.24,10.95-4,18.28-15.75,19.62-12.93,1.48-21.36-4.49-22.27-17s6.08-19.59,19.54-19.43C365.63,321,371.79,326.22,372.61,337.7Z"/><path class="cls-1" d="M317.26,338c-.68,10.29-4.35,18.23-16.06,19.24-12.46,1.08-20.78-3.92-21.45-17.13-.65-12.93,6.31-19.23,19.27-19.34C310.75,320.7,315.65,327.51,317.26,338Z"/></g></g></svg>