<svg xmlns="http://www.w3.org/2000/svg" viewBox="0 0 375.99 400"><defs><style>.cls-1{fill:#ff3b3b;}</style></defs><g id="Layer_2" data-name="Layer 2"><g id="Layer_1-2" data-name="Layer 1"><path class="cls-1" d="M.6,263.52c0-24.42-.36-48.84.11-73.24.53-28-10.62-60.92,39.4-61.18C60.5,129,50.77,102.5,51.56,88,54.29,37.42,84.46,2.5,129.47.15c50.95-2.66,83.66,30.27,84,86.84.15,25.81-2.66,49.79,36,45.81,17.85-1.83,20.81,13.35,20.78,28.23-.11,69.17-.35,138.35.16,207.52.14,19.75-6.11,30.52-27.77,30.17-42-.66-84.09-.12-126.14-.21-9.81,0-20.48-.94-19.27-14.3,1-10.51,11-10.71,19-10.84,31.18-.49,62.42-1.57,93.56-.4,25.29,1,36.57-6.28,35.29-34.4-2.27-50.08-1.64-100.36-.31-150.51.6-22.94-7.37-32.06-30.27-31.12-27.08,1.1-54.25.58-81.36.13-9-.15-21.51,1.59-22.31-11.4-.78-12.68,10.67-13.38,20.38-13.87a58.08,58.08,0,0,1,8.13-.1c31.09,2.88,56.27,2.38,50.73-42.44-4.83-39.08-21-63.18-53.4-64.72C103.23,23,81.34,45.6,79.87,83.93c-.58,14.88,0,29.82.19,44.73.24,17.26-5.08,30-25.28,28.2-28-2.47-29.8,14-29.28,35.74,1.07,44.73.12,89.51.37,134.27C26,348.58,18.15,374.69,55,376.05c9.24.34,12.69,11.21,3.34,17.5-14.52,9.77-31.68,6.4-47.19,3.08C-3,393.59.88,379.45.76,369.31.31,334.06.58,298.79.6,263.52Z"/><path class="cls-1" d="M132.79,315.61c-8.36-1.17-41-60-38.18-70.29,6.15-22.23,20.83-35.5,44.35-32,25.54,3.79,36.11,21.23,33,46.55C170.66,270.56,137.82,316.31,132.79,315.61Z"/><path class="cls-1" d="M376,134c-1.14,7.36,3,17.82-8.27,19.88-13.3,2.42-14.44-8-16.19-17.69-8.67-47.95-36.89-76.37-85.21-84.47-9.19-1.54-21.14-2-19.69-15,1.79-16,15.48-11.87,25.49-10.81C324.83,31.51,376.5,85.58,376,134Z"/><path class="cls-1" d="M265.31,81.09c25.9.21,55.35,28.14,56.27,53.6.28,7.89,1.26,17.1-9.09,19.32-10,2.15-14.51-5-16.28-13.41-4.37-20.79-16.95-32.55-37.65-36.36-7.21-1.32-12.56-5.7-11.79-13.54C247.94,78.74,258.07,82.33,265.31,81.09Z"/></g></g></svg>